<?xml version="1.0" standalone="no"?>
<!DOCTYPE svg PUBLIC "-//W3C//DTD SVG 1.1//EN" "http://www.w3.org/Graphics/SVG/1.1/DTD/svg11.dtd" >
<svg xmlns="http://www.w3.org/2000/svg" xmlns:xlink="http://www.w3.org/1999/xlink" version="1.1">
<metadata></metadata>
<defs>
<font id="northrowregular" horiz-adv-x="0" >
<font-face units-per-em="2048" ascent="1638" descent="-410" />
<missing-glyph horiz-adv-x="440" />
<glyph />
<glyph />
<glyph horiz-adv-x="682" />
<glyph unicode="&#xa;" />
<glyph unicode="&#xd;" />
<glyph unicode=" "  horiz-adv-x="440" />
<glyph unicode="&#x09;" horiz-adv-x="440" />
<glyph unicode="&#xa0;" horiz-adv-x="440" />
<glyph unicode="!" horiz-adv-x="819" d="M105 -3q12 38 74 57q33 11 41.5 -11t-2.5 -46q-8 -23 -29.5 -39.5t-44.5 -16.5t-34.5 16.5t-4.5 39.5zM182 140q66 258 140.5 518t180.5 612t155 518q4 14 36 22q25 5 23 -7q-51 -175 -147 -520.5t-173 -608.5t-161 -520q-4 -13 -34 -20q-21 -4 -20 6z" />
<glyph unicode="&#x22;" horiz-adv-x="534" d="M106 645q-10 9 16 27q106 68 166 145q14 18 55 25q33 7 30 -7q0 -3 -4 -8q-89 -117 -211 -173q-40 -20 -52 -9zM275 645q-10 9 16 27q108 70 167 145q14 18 56 26q30 5 28 -7q0 -4 -4 -9q-90 -119 -211 -174q-39 -20 -52 -8z" />
<glyph unicode="&#x201c;" horiz-adv-x="534" d="M106 645q-10 9 16 27q106 68 166 145q14 18 55 25q33 7 30 -7q0 -3 -4 -8q-89 -117 -211 -173q-40 -20 -52 -9zM275 645q-10 9 16 27q108 70 167 145q14 18 56 26q30 5 28 -7q0 -4 -4 -9q-90 -119 -211 -174q-39 -20 -52 -8z" />
<glyph unicode="#" horiz-adv-x="1249" d="M110 45q1 3 3 6q96 130 203 272q-34 1 -102.5 2t-102.5 2q-22 0 5 17q25 15 38 15q124 -2 187 -3l183 243q-51 1 -155.5 2.5t-155.5 2.5q-21 0 3.5 16t38.5 16q49 0 147 -2t147 -2q120 158 180 236q10 13 39 17q15 2 15 -4q0 -2 -3 -6q-120 -162 -181 -243q186 -2 277 -4 q122 160 184 240q10 13 39 17q15 2 15 -4q0 -2 -3 -6q-87 -119 -185 -248q71 -1 213 -5q22 -1 -5 -16q-22 -13 -35 -14q-132 0 -198 1q-31 -41 -91.5 -121.5t-90.5 -120.5q35 -1 100 -2t118 -2t100 -2q22 -1 -5 -17q-23 -14 -35 -14q-1 0 -304 3q-130 -172 -194 -258 q-10 -14 -41 -19q-18 -2 -17 5q1 3 3 6q33 45 99.5 134t99.5 133q-186 2 -277 4q-33 -44 -99 -131.5t-99 -131.5q-10 -14 -41 -19q-18 -2 -17 5zM391 356q46 0 139 -2t139 -2q86 116 182 242q-46 1 -138.5 2.5t-138.5 1.5q-30 -41 -91 -121.5t-92 -120.5z" />
<glyph unicode="$" horiz-adv-x="1239" d="M102.5 -144q-2.5 48 46.5 101q13 13 43 16q13 2 13 -3q0 -2 -3 -6q-28 -31 -32.5 -64t10 -58t40.5 -42q75 -47 233 -24q45 7 84 16q22 75 65.5 225t65.5 225q-120 18 -143 24q-131 34 -122 137q10 104 120 270q87 131 216 247q105 94 165 127q13 47 41 140t41 139 q4 14 36 22q24 4 22 -7q-11 -38 -33.5 -115t-33.5 -116q-2 -6 -5.5 -18t-5.5 -18q3 1 17 4q71 14 91 -42q6 -17 13 -72q41 -292 49 -365q1 -7 -13.5 -15.5t-28 -10t-17.5 4.5q-7 43 -24.5 196.5t-38.5 230.5q-11 43 -59 30q-170 -581 -223 -760q49 -7 78 -12.5t66 -22 t57 -42.5q32 -39 28 -97t-43 -113q-97 -139 -332 -210q-15 -53 -44 -151t-41 -138q-4 -13 -34 -20q-21 -4 -20 6q11 36 32.5 114.5t32.5 115.5q3 10 8 29t8 29q-68 -16 -107 -22q-189 -27 -273 35q-43 32 -45.5 80zM471 384q6 -23 22.5 -40.5t34 -27t48.5 -17t50 -10.5 t54 -7q35 120 105.5 359.5t105.5 359.5q-69 -47 -154 -134.5t-121 -136.5q-174 -235 -145 -346zM595 -193q207 64 276 193q24 46 28 82.5t-8 60.5t-39.5 42.5t-58.5 29t-73 18.5q-21 -71 -62.5 -213t-62.5 -213z" />
<glyph unicode="%" horiz-adv-x="1243" d="M102 -605q0 1 1 2q521 1001 898 1652q-171 -95 -383 -7q-6 -4 -15 -9q23 -173 -59 -344q-15 -32 -33 -61t-45.5 -64.5t-60.5 -52t-64 -6.5q-14 5 -21.5 16t-7.5 30.5t1 32.5t6 37t6 29q28 160 83 277q19 42 53 79.5t71 52.5q-6 24 -10 36q-3 8 10.5 16t28 10t21.5 0 q267 -174 458 -5q7 12 21 36.5t21 36.5q9 15 43 20q17 1 16 -5q-3 -6 -11 -18.5t-11 -18.5q8 1 10.5 -1.5t-1.5 -8.5q-12 -15 -38 -41q-166 -288 -469 -859t-460 -845q-8 -14 -41 -20q-19 -4 -18 3zM377 582.5q0 -8.5 2.5 -13.5t6 -9t10.5 -3.5t17 5.5q5 3 13 14t18 28 l10 17q59 95 80 201.5t4 206.5q-30 -9 -63 -76.5t-47 -114t-24 -87.5q-20 -85 -26 -142q-1 -8 -1 -13v-13.5zM727 -184.5q-2 16.5 1 50t3.5 42t4.5 39.5t18 84.5t38.5 117.5t63 98t80.5 9q66 28 99 -20q29 -41 32.5 -110.5t-13.5 -140.5t-53 -138t-82 -104q-33 -28 -73 -39 t-75 5q-15 9 -25 24.5t-13.5 40.5t-5.5 41.5zM794 -87q-5 -106 11 -137q12 -24 27 -31.5t29.5 0t28 20.5t26 33t20 34.5t13.5 27.5q69 150 43 289q-12 67 -28 72q-28 10 -62 -49q-36 -59 -68 -142q-5 -13 -29 -20q-10 -53 -11 -97zM881 218l6 6q-3 -2 -6 -6z" />
<glyph unicode="&#x26;" horiz-adv-x="1345" d="M102.5 -438.5q-3.5 61.5 21.5 126.5t62.5 126.5t87.5 120.5q63 75 170 175q-61 384 60 749q21 62 40.5 111.5t53 113t70 109.5t90.5 86.5t115 59.5q58 20 100 10.5t69.5 -33t43 -64t21.5 -82t5 -87.5q-4 -147 -65.5 -302t-170.5 -292q-37 -47 -88 -100t-83 -83.5 t-102.5 -95t-91.5 -83.5q24 -151 85 -326q29 -84 52 -138q36 45 57 73q116 154 202 342q7 15 40 22q22 4 21 -5q0 -1 -1 -2q-121 -274 -302 -470q77 -178 171 -307q80 -110 179 -175q208 -137 321 -41q15 13 43 14q12 1 12 -4q0 -4 -8 -11q-45 -40 -97.5 -57.5t-99 -15.5 t-96 17.5t-86 35t-71.5 44.5q-104 74 -177.5 184.5t-142.5 262.5q-29 -28 -59 -53q-70 -59 -146.5 -92.5t-150.5 -29.5t-116 59q-35 46 -38.5 107.5zM169 -400q0 -64 33.5 -110.5t90.5 -57.5t134 30q84 47 171 143q-106 240 -147 464q-68 -68 -99 -104q-183 -210 -183 -365z M505 167q186 171 255 247q126 140 200.5 301.5t84.5 318.5q13 190 -64 255q-31 26 -66 29.5t-67 -14t-62.5 -44.5t-58 -64t-48 -70t-36.5 -66q-204 -421 -138 -893z" />
<glyph unicode="'" horiz-adv-x="462" d="M190 645q-10 9 16 27q106 68 166 145q14 18 55 25q33 7 30 -7q0 -3 -4 -8q-90 -119 -211 -174q-39 -20 -52 -8z" />
<glyph unicode="&#x2018;" horiz-adv-x="462" d="M190 645q-10 9 16 27q106 68 166 145q14 18 55 25q33 7 30 -7q0 -3 -4 -8q-90 -119 -211 -174q-39 -20 -52 -8z" />
<glyph unicode="(" horiz-adv-x="1003" d="M103 -185q4 239 126 599q66 196 129.5 341t155.5 276q206 292 377 272q21 -3 -5 -19q-23 -15 -36 -13q-40 5 -85 -21t-88.5 -75.5t-69.5 -84t-56 -80.5q-69 -105 -130 -241q-94 -211 -172 -470q-85 -285 -81 -497q1 -63 8 -114.5t23.5 -108t50.5 -96.5t84 -59 q15 -6 -16 -21q-25 -13 -35 -10q-185 54 -180 422z" />
<glyph unicode=")" horiz-adv-x="1003" d="M111 -605q-22 3 6 19q24 15 36 13q40 -5 85 21t88.5 75.5t69.5 84t56 80.5q65 100 129 241q94 211 172 470q86 289 82 497q-1 63 -8 114.5t-23.5 107.5t-51 96.5t-84.5 59.5q-15 6 16 21q25 12 35 10q186 -54 181 -423q-4 -238 -126 -598q-66 -196 -129.5 -341 t-155.5 -276q-206 -293 -378 -272z" />
<glyph unicode="*" horiz-adv-x="786" d="M106 1195q4 3 11 9t10 10q13 10 31 12q25 15 77 43.5t77 42.5q-52 -2 -77 -4q-13 -1 -11 5q5 11 27 18q3 1 6 1q29 2 87 4q1 2 3 8t3 8q-45 63 -84 129q-5 0 -7 4t-5 12.5t-5 12.5q-2 5 9 11.5t22.5 9t15.5 -1.5q37 -63 76 -118q15 39 47 115q5 12 30 16q14 1 13 -5 q-22 -55 -62 -163l6 -9q145 83 244 143q17 10 33 6q10 -3 -7 -13q-139 -83 -257 -152q1 -2 4 -5.5t5 -5.5q93 -2 171 -13q12 -2 -12 -15q-15 -9 -21 -8q-76 6 -115 8q77 -92 185 -198q4 -4 -5.5 -10.5t-21.5 -10t-16 -0.5q-111 87 -213 221h-2q-36 -106 -73 -229 q-7 -14 -32 -17q-13 -1 -12 6q31 119 70 228q-128 -72 -192 -106q-13 -7 -31 -6q-10 0 -2 7z" />
<glyph unicode="+" horiz-adv-x="1030" d="M116 350q-30 -1 1 21q36 25 62 28q53 2 157 5.5t157 4.5q50 180 100 344q4 14 35 21q23 5 21 -6q-31 -119 -97 -357q202 7 361 8q30 0 -4 -22q-35 -23 -55 -24q-158 -7 -315 -12q-15 -54 -46 -161t-46 -161q-4 -14 -36 -22q-26 -5 -24 7l93 336q-60 -2 -182 -5t-182 -5z " />
<glyph unicode="," horiz-adv-x="477" d="M106 -60q-10 9 16 27q106 68 166 145q14 18 57 26q30 6 28 -6q0 -4 -4 -9q-90 -119 -211 -174q-40 -20 -52 -9z" />
<glyph unicode="-" horiz-adv-x="999" d="M112 365q-21 -1 3.5 15.5t38.5 16.5q82 2 231.5 7t272 8.5t230.5 5.5q21 1 -4 -15q-22 -15 -35 -16q-84 -3 -737 -22z" />
<glyph unicode="." horiz-adv-x="325" d="M105 -3q12 38 74 57q33 11 41.5 -11t-2.5 -46q-8 -23 -29.5 -39.5t-44.5 -16.5t-34.5 16.5t-4.5 39.5z" />
<glyph unicode="/" horiz-adv-x="1599" d="M103 -551q0 2 2 5q193 280 650 901t685 961q9 13 39 18q20 3 18 -6q0 -2 -2 -5q-102 -153 -221 -324.5t-205.5 -294t-236.5 -328.5t-212.5 -290.5t-241 -326t-220.5 -298.5q-9 -13 -40 -17q-16 -2 -15 5z" />
<glyph unicode="0" horiz-adv-x="1476" d="M102.5 -200q7.5 101 42 222.5t76 221t93.5 201.5q144 284 363 533q25 29 42 47q-8 0 -8 6q1 43 33.5 78.5t82.5 56.5q52 22 102 20q49 16 93 1q10 -4 -4 -14q11 -3 31 -9q65 -19 115.5 -42t97 -58t75 -85.5t34.5 -114.5q18 -188 -109 -536q-103 -283 -270 -510 q-204 -277 -391 -370q-105 -51 -203.5 -47t-170.5 58q-73 55 -102.5 147.5t-22 193.5zM275 -499q76 -66 178 -66q118 -1 263 131q167 151 301 370q115 189 190.5 397t94.5 397q21 215 -111 312q-59 44 -168 78q-70 23 -129 22q-22 -12 -45 -31.5t-49.5 -47.5t-40 -43 t-40.5 -48l-27 -34q-88 -106 -171 -231q-147 -223 -240 -461q-216 -563 -6 -745zM785 1092q22 20 44 38q-30 -13 -44 -38z" />
<glyph unicode="1" horiz-adv-x="765" d="M103 -590q11 35 30.5 105.5t29.5 106.5q95 324 443 1504q4 14 36 22q24 4 22 -7q-10 -36 -30.5 -106t-31.5 -106q-73 -250 -221.5 -752t-221.5 -753q-4 -14 -35 -20q-23 -5 -21 6z" />
<glyph unicode="2" horiz-adv-x="1404" d="M33 -526q161 151 233.5 220t215.5 209t230.5 235t197.5 223t198 248q55 74 87 120t71 115.5t59 128.5q40 120 -1 160q-23 22 -74 26.5t-88 -0.5q-251 -9 -415 -108q-89 -53 -150 -128q-22 -27 -36 -50.5t-19 -46t16 -26.5t69 8q20 6 20 -1q-1 -10 -22 -21l-11 -5 q-74 -23 -137 -1q-6 1 -4 8q27 78 85.5 145t133.5 112.5t153.5 76t158.5 46.5q244 48 343 13q109 -39 15 -250q-27 -61 -72.5 -133.5t-79 -118t-94.5 -125.5q-139 -181 -308 -364q-99 -108 -225.5 -234.5t-210.5 -206.5t-237 -225q76 26 154.5 26.5t142.5 -18.5t136.5 -42 t137 -42.5t143 -21.5t154.5 21q27 8 29 -3t-24 -20q-1 -1 -2 -1q-72 -24 -147.5 -26.5t-133.5 8.5t-130 34q-19 6 -63 21.5t-71 23.5t-70.5 19.5t-77 13.5t-75 1.5t-81 -12.5t-77.5 -33q-13 -8 -40 -9q-19 -2 -7 10z" />
<glyph unicode="3" horiz-adv-x="1511" d="M-34.5 -387.5q1.5 42.5 38.5 84.5q12 14 44 18q19 3 17 -5q0 -3 -3 -6q-25 -30 -26 -63t17.5 -61.5t39.5 -49t45 -37.5q88 -59 223 -64q138 -5 285 46.5t271 152.5q130 106 193.5 237t16.5 242q-28 66 -87.5 104.5t-136.5 43.5q-176 -111 -344 -119q-10 -1 -10.5 5.5 t8.5 12.5q79 62 171.5 98.5t180.5 39.5q96 70 196 183q250 286 242 488q-4 99 -64 151.5t-164 42.5q-109 -11 -203.5 -71t-149.5 -160q-9 -16 -43 -21q-19 -4 -18 4q0 1 1 2q38 68 102 125.5t136.5 94t149.5 52t141 6t111 -51t60 -111.5q13 -72 -10.5 -158t-74 -170 t-110 -158.5t-128.5 -141.5q-58 -57 -126 -106q65 -5 119 -33q108 -56 130.5 -175.5t-53.5 -250.5q-71 -120 -195 -215.5t-266 -152.5q-268 -108 -487 -59q-32 7 -71.5 24t-79 45.5t-65 61.5t-24 75.5zM636 175q104 13 214 79q-113 -10 -214 -79z" />
<glyph unicode="4" horiz-adv-x="1196" d="M103 348q0 2 1 3q14 21 30 39q456 578 684 866q11 14 41 18q16 2 15 -5q0 -3 -3 -6q-125 -159 -361 -458.5t-273 -346.5q92 36 180 18q36 -7 68 -21.5t77.5 -41.5t59.5 -35q174 -95 367 9q36 123 109 369.5t109 369.5q4 14 36 22q24 4 22 -7q-10 -36 -30.5 -106.5 t-31.5 -105.5q-73 -250 -221 -752t-221 -753q-4 -14 -35 -20q-23 -5 -21 6q11 35 30 105.5t30 106.5q32 109 68 231.5t80 272t68 231.5q-155 -76 -295 -53q-29 5 -80.5 31.5t-102 53t-105.5 47t-108.5 15t-93.5 -45.5q-6 -7 -17.5 -21.5t-16.5 -21.5q-10 -12 -43 -18 q-18 -3 -16 4z" />
<glyph unicode="5" horiz-adv-x="1724" d="M-6.5 -391q5.5 39 36.5 84q10 15 45 22q20 4 18 -4q0 -1 -1 -2q-30 -51 -30 -94t24 -71t63.5 -50.5t89.5 -33t101 -18t98 -6t81 3.5q117 13 232.5 62t217 135.5t161.5 195.5q80 157 78 308.5t-72 271.5q-32 54 -91.5 96t-131 59.5t-151 -13t-139.5 -114.5q-9 -13 -43 -20 q-22 -5 -20 4q0 2 1 3q203 448 349 692q9 15 43 21q20 5 19 -4q0 -1 -1 -2q-1 -2 -4 -6.5t-4 -7.5q4 1 9 1q339 -25 746 32q18 2 14 -5q-7 -12 -34 -22q-4 -2 -7 -2q-369 -64 -745 -37q-213 -412 -281 -558q92 61 205 73t187 -26q118 -57 173.5 -193t40.5 -290 q-14 -149 -102.5 -285.5t-233.5 -235.5q-136 -93 -290 -137t-300 -36q-33 2 -69.5 7t-79.5 16.5t-80.5 27t-67.5 39t-45 52t-9.5 67.5z" />
<glyph unicode="6" horiz-adv-x="1421" d="M105 -343q-11 104 26 232.5t110.5 261t155.5 250t179 235.5q200 243 437 423q121 92 174 122q118 69 131 17q2 -10 -28.5 -21t-34.5 -1q-10 27 -187.5 -117t-236.5 -203q-180 -179 -326 -386q-273 -388 -319 -639q74 96 192 201q238 211 444 186q73 -9 123.5 -43.5 t73.5 -85.5t22 -116.5t-26 -133.5t-77 -138.5t-125 -130.5q-83 -68 -175.5 -109t-176.5 -49.5t-156 8.5t-122.5 65t-68.5 119q-4 14 -8 46q0 1 -0.5 3t-0.5 4zM191 -380q38 -125 150 -162q100 -33 229 8t232 142q79 78 122.5 167.5t46 167t-36.5 139t-115 87.5 q-61 24 -142.5 7.5t-156.5 -72.5q-93 -71 -173 -155q-230 -245 -143 -313q4 -3 0 -7t-13 -9z" />
<glyph unicode="7" horiz-adv-x="1257" d="M-55 -593q1 3 3 6q271 369 619 826q-288 -17 -462 -37q-19 -2 -14 6q6 13 34 24l9 2q268 31 462 44q105 138 315.5 413t315.5 413q-168 -68 -329.5 -103.5t-325.5 -28t-283 69.5q-9 4 18 19q31 16 42 10q115 -61 278 -65.5t324 34t319 109.5q23 10 37 6q9 -2 1 -12 q-108 -143 -323 -430t-323 -431q110 6 233 4q21 0 -4 -16q-19 -12 -29 -13q-158 -10 -229 -14q-358 -475 -628 -822q-11 -14 -43 -19q-18 -3 -17 5z" />
<glyph unicode="8" horiz-adv-x="1286" d="M105 -365q9 60 25 110.5t44 116.5q120 285 294 485q-176 195 -43 413q96 156 324 283q69 38 122 63t124 42t120 4q27 -7 43 -25t20.5 -46t4 -55.5t-9 -65.5t-15.5 -64.5t-18.5 -64t-15.5 -53.5q-84 -308 -224 -579q-9 -16 -44 -23q-23 -5 -21 5q0 1 1 2q190 395 261 739 q2 8 6 27.5t6.5 32t4.5 29t1.5 30t-3.5 25.5q-7 27 -28 41t-50.5 13.5t-58.5 -7t-61 -18.5q-165 -64 -300 -179q-127 -109 -161 -237t31 -235q15 -28 30 -46q178 191 258 127q9 -7 -19 -19q-28 -13 -38 -7q-43 31 -178 -128q36 -41 80.5 -76.5t114.5 -83t92 -63.5 q85 -62 112 -87q124 -119 33 -231q-83 -102 -203.5 -197.5t-242.5 -162.5q-66 -36 -128.5 -54t-124.5 -13t-105 41q-40 34 -54.5 82.5t-5.5 108.5zM169 -356.5q-2 -43.5 5 -84.5t35 -71t74 -45q61 -20 142 6.5t164.5 86.5t147 116t125.5 119q30 30 44.5 47.5t28 45.5t9.5 54 q-1 9 -5 18.5t-7.5 16t-12 17t-11 14t-13.5 15t-12 12.5q-54 59 -160 133q-10 7 -41.5 29t-49 34.5t-44.5 32.5t-49.5 40t-43.5 40q-52 -66 -85 -114q-84 -124 -152 -277q-22 -50 -38 -92t-32.5 -96t-18.5 -97.5z" />
<glyph unicode="9" horiz-adv-x="972" d="M103 374.5q4 36.5 9.5 60t18.5 65.5q2 7 3 10q53 175 167 353.5t259 275.5q127 84 196 45q91 -51 -35 -251q-10 -16 -45 -21q-16 -2 -15 4q0 1 1 2q123 191 40 234q-20 10 -59.5 -4t-70.5 -35q-25 -17 -66 -62q-34 -37 -78 -91q-158 -200 -228 -421q-34 -105 -35 -146 q-1 -56 33 -78q78 -51 276 134q5 5 8 7q187 175 324 398q8 14 41 23q24 7 24 -4q-1 -2 -1 -3q-112 -358 -476 -1445q-5 -15 -38 -23q-25 -6 -24 5q1 1 1 2q228 679 425 1296q-199 -269 -403 -389q-127 -74 -206 -38q-26 12 -38 36t-8 60.5z" />
<glyph unicode=":" horiz-adv-x="423" d="M105 195q11 33 66 50q30 9 37.5 -9.5t-2.5 -40.5q-7 -21 -26 -36t-40 -15t-31.5 15t-3.5 36zM216 554q11 33 66 50q30 9 37.5 -9.5t-2.5 -40.5q-7 -21 -26 -36t-40 -15t-31.5 15t-3.5 36z" />
<glyph unicode=";" horiz-adv-x="548" d="M105 71q-9 8 15 24q99 65 150 130q13 17 51 24q27 4 25 -7q-1 -3 -4 -7q-83 -108 -189 -156q-38 -17 -48 -8zM341 540q10 32 67 50q30 9 37.5 -9.5t-2.5 -40.5q-7 -21 -26.5 -36t-40.5 -15t-31.5 15t-3.5 36z" />
<glyph unicode="&#x3c;" horiz-adv-x="671" d="M106 359q5 12 14.5 21.5t28 22.5t20.5 15q21 17 63.5 50t64.5 50q134 107 219 191q12 12 40 14q13 1 12 -5q-1 -2 -4 -6q-62 -68 -166 -154q-7 -6 -103 -82q-1 -1 -38.5 -27.5t-49.5 -41.5q-13 -16 -14 -32t6 -28.5t20.5 -25.5t27 -22t29 -19.5t21.5 -15.5 q84 -71 133 -136q5 -7 -8.5 -17.5t-31.5 -15.5t-23 0q-120 120 -162 154q-3 2 -39 24t-53 43t-7 43z" />
<glyph unicode="=" horiz-adv-x="894" d="M112 232q-21 0 3.5 16t38.5 16q409 2 525 1q22 0 -5 -17q-24 -14 -35 -14q-118 -2 -527 -2zM217 526q-21 0 3.5 16t38.5 16q409 2 525 1q21 0 -4 -16q-23 -14 -35 -15q-118 -2 -528 -2z" />
<glyph unicode="&#x3e;" horiz-adv-x="692" d="M109 96q-18 2 8 21q73 52 199 125q42 25 103 57q7 3 29 12.5t32 15.5t19.5 20t7.5 33q-1 12 -10.5 27t-23.5 31t-18 22q-25 37 -52 82q-52 88 -70 154q-2 7 12.5 16.5t28.5 13t19 -1.5q46 -105 114 -209q2 -3 30.5 -36t42.5 -61t6 -49t-38.5 -40.5t-75 -38t-47.5 -20.5 q-96 -51 -274 -164q-20 -13 -42 -10z" />
<glyph unicode="?" horiz-adv-x="1406" d="M105 -3q12 38 74 57q33 11 41.5 -11t-2.5 -46q-8 -23 -29.5 -39.5t-44.5 -16.5t-34.5 16.5t-4.5 39.5zM166 184.5q-2 6.5 2.5 24.5t5 25.5t7 26t9 26.5t10 26.5t10.5 26t10.5 25.5t10.5 24q61 145 156 276q77 106 168.5 208t238.5 249t191 193q43 45 66.5 70t64.5 74 t63.5 85t41.5 81t20 83q2 52 -30.5 75.5t-86 20t-103 -16t-97.5 -31.5q-251 -101 -413 -280q-51 -56 -80 -118t-22.5 -121t58.5 -89q9 -5 -19 -20q-28 -13 -39 -8q-59 33 -69 88t19.5 113.5t81.5 121.5t109 113t111 86q88 60 179 106t197 74t181 11q54 -12 75 -44.5 t10.5 -78t-34 -93.5t-64 -102.5t-73 -93.5t-67.5 -76q-61 -65 -193.5 -196.5t-230 -237t-174.5 -209.5q-100 -134 -162 -278q-2 -5 -16 -37t-19 -43.5t-15.5 -39.5t-14.5 -44t-7 -37.5t-2 -38.5q0 -8 -16 -17.5t-30.5 -11t-17.5 5.5q1 17 -1 23.5z" />
<glyph unicode="@" horiz-adv-x="1316" d="M113 31q-25 95 8 225.5t108.5 255.5t180.5 241.5t224 184.5t238 84t223 -60q91 -64 113.5 -189t-28.5 -264.5t-162 -242.5q-37 -34 -77.5 -52.5t-77.5 -14t-58 37.5q-31 49 -26 125q-69 -101 -147 -161q-29 -22 -63 -38.5t-67 -23t-58 6.5t-31 46q-13 72 48.5 166 t145.5 169q147 132 334 179q22 5 21 -3q-3 -12 -27 -22l-8 -3q-139 -36 -268.5 -146t-171.5 -241q-7 -21 -9.5 -42t1.5 -39t15 -27.5t34 -5.5t56 25q39 24 114 122q79 104 126 232q5 14 13 40q5 15 38 23q27 5 25 -8q-3 -10 -11 -30q-36 -113 -43 -176q-13 -122 31 -154 q31 -21 62.5 -7t61 53t55.5 90t45.5 103t31.5 92t14 57q8 71 -9.5 133t-53 106t-89.5 70t-116.5 29.5t-137 -21.5t-147.5 -78q-110 -80 -205.5 -206.5t-154 -264t-63.5 -251.5q-5 -95 38.5 -162.5t128.5 -93.5q100 -31 220.5 -0.5t260.5 101.5q19 9 35 3q14 -4 -9 -16 q-82 -44 -169.5 -77t-179.5 -48.5t-168.5 -7.5t-135 52t-79.5 124z" />
<glyph unicode="A" horiz-adv-x="1589" d="M102 92q1 11 23 21l13 5q76 18 225 54t220 53q62 104 94 156q40 67 122.5 200.5t122.5 200.5q6 9 29.5 48.5t32 53t29.5 47.5t34.5 52t33.5 45.5t39.5 49.5t40.5 43q107 107 175 107q9 0 18 -2q25 -6 38.5 -27.5t16.5 -56.5t2 -63.5t-5 -68.5t-5 -52q-12 -271 -70 -611 q51 2 98 2q66 0 124 -4q23 -1 -6 -18q-23 -14 -35 -14q-83 0 -188 -5q-66 -371 -224 -983q-3 -14 -34 -22q-28 -6 -27 7q27 127 87.5 381.5t87.5 381.5q31 147 46 232q-232 -16 -454 -60q-93 -18 -186 -39q-253 -424 -403 -755q-7 -15 -39 -21q-21 -4 -20 4q0 1 1 2 q140 313 404 757q-57 -13 -207 -49.5t-232 -54.5q-23 -5 -22 3zM639 238q371 86 628 105q50 283 66 507q8 101 9 199q0 5 1 21t1 25t-0.5 24t-3.5 24.5t-7.5 19t-13 14t-20.5 4.5q-16 0 -33 -8t-35.5 -24t-34.5 -31.5t-36 -42t-32.5 -43.5t-31.5 -47t-26.5 -42.5t-24 -39.5 t-17.5 -29q-60 -100 -191 -312t-198 -324z" />
<glyph unicode="&#xc4;" horiz-adv-x="1589" d="M102 92q1 11 23 21l13 5q76 18 225 54t220 53q62 104 94 156q40 67 122.5 200.5t122.5 200.5q6 9 29.5 48.5t32 53t29.5 47.5t34.5 52t33.5 45.5t39.5 49.5t40.5 43q107 107 175 107q9 0 18 -2q25 -6 38.5 -27.5t16.5 -56.5t2 -63.5t-5 -68.5t-5 -52q-12 -271 -70 -611 q51 2 98 2q66 0 124 -4q23 -1 -6 -18q-23 -14 -35 -14q-83 0 -188 -5q-66 -371 -224 -983q-3 -14 -34 -22q-28 -6 -27 7q27 127 87.5 381.5t87.5 381.5q31 147 46 232q-232 -16 -454 -60q-93 -18 -186 -39q-253 -424 -403 -755q-7 -15 -39 -21q-21 -4 -20 4q0 1 1 2 q140 313 404 757q-57 -13 -207 -49.5t-232 -54.5q-23 -5 -22 3zM639 238q371 86 628 105q50 283 66 507q8 101 9 199q0 5 1 21t1 25t-0.5 24t-3.5 24.5t-7.5 19t-13 14t-20.5 4.5q-16 0 -33 -8t-35.5 -24t-34.5 -31.5t-36 -42t-32.5 -43.5t-31.5 -47t-26.5 -42.5t-24 -39.5 t-17.5 -29q-60 -100 -191 -312t-198 -324z" />
<glyph unicode="&#xc3;" horiz-adv-x="1589" d="M102 92q1 11 23 21l13 5q76 18 225 54t220 53q62 104 94 156q40 67 122.5 200.5t122.5 200.5q6 9 29.5 48.5t32 53t29.5 47.5t34.5 52t33.5 45.5t39.5 49.5t40.5 43q107 107 175 107q9 0 18 -2q25 -6 38.5 -27.5t16.5 -56.5t2 -63.5t-5 -68.5t-5 -52q-12 -271 -70 -611 q51 2 98 2q66 0 124 -4q23 -1 -6 -18q-23 -14 -35 -14q-83 0 -188 -5q-66 -371 -224 -983q-3 -14 -34 -22q-28 -6 -27 7q27 127 87.5 381.5t87.5 381.5q31 147 46 232q-232 -16 -454 -60q-93 -18 -186 -39q-253 -424 -403 -755q-7 -15 -39 -21q-21 -4 -20 4q0 1 1 2 q140 313 404 757q-57 -13 -207 -49.5t-232 -54.5q-23 -5 -22 3zM639 238q371 86 628 105q50 283 66 507q8 101 9 199q0 5 1 21t1 25t-0.5 24t-3.5 24.5t-7.5 19t-13 14t-20.5 4.5q-16 0 -33 -8t-35.5 -24t-34.5 -31.5t-36 -42t-32.5 -43.5t-31.5 -47t-26.5 -42.5t-24 -39.5 t-17.5 -29q-60 -100 -191 -312t-198 -324z" />
<glyph unicode="&#xc2;" horiz-adv-x="1589" d="M102 92q1 11 23 21l13 5q76 18 225 54t220 53q62 104 94 156q40 67 122.5 200.5t122.5 200.5q6 9 29.5 48.5t32 53t29.5 47.5t34.5 52t33.5 45.5t39.5 49.5t40.5 43q107 107 175 107q9 0 18 -2q25 -6 38.5 -27.5t16.5 -56.5t2 -63.5t-5 -68.5t-5 -52q-12 -271 -70 -611 q51 2 98 2q66 0 124 -4q23 -1 -6 -18q-23 -14 -35 -14q-83 0 -188 -5q-66 -371 -224 -983q-3 -14 -34 -22q-28 -6 -27 7q27 127 87.5 381.5t87.5 381.5q31 147 46 232q-232 -16 -454 -60q-93 -18 -186 -39q-253 -424 -403 -755q-7 -15 -39 -21q-21 -4 -20 4q0 1 1 2 q140 313 404 757q-57 -13 -207 -49.5t-232 -54.5q-23 -5 -22 3zM639 238q371 86 628 105q50 283 66 507q8 101 9 199q0 5 1 21t1 25t-0.5 24t-3.5 24.5t-7.5 19t-13 14t-20.5 4.5q-16 0 -33 -8t-35.5 -24t-34.5 -31.5t-36 -42t-32.5 -43.5t-31.5 -47t-26.5 -42.5t-24 -39.5 t-17.5 -29q-60 -100 -191 -312t-198 -324z" />
<glyph unicode="&#xc1;" horiz-adv-x="1589" d="M102 92q1 11 23 21l13 5q76 18 225 54t220 53q62 104 94 156q40 67 122.5 200.5t122.5 200.5q6 9 29.5 48.5t32 53t29.5 47.5t34.5 52t33.5 45.5t39.5 49.5t40.5 43q107 107 175 107q9 0 18 -2q25 -6 38.5 -27.5t16.5 -56.5t2 -63.5t-5 -68.5t-5 -52q-12 -271 -70 -611 q51 2 98 2q66 0 124 -4q23 -1 -6 -18q-23 -14 -35 -14q-83 0 -188 -5q-66 -371 -224 -983q-3 -14 -34 -22q-28 -6 -27 7q27 127 87.5 381.5t87.5 381.5q31 147 46 232q-232 -16 -454 -60q-93 -18 -186 -39q-253 -424 -403 -755q-7 -15 -39 -21q-21 -4 -20 4q0 1 1 2 q140 313 404 757q-57 -13 -207 -49.5t-232 -54.5q-23 -5 -22 3zM639 238q371 86 628 105q50 283 66 507q8 101 9 199q0 5 1 21t1 25t-0.5 24t-3.5 24.5t-7.5 19t-13 14t-20.5 4.5q-16 0 -33 -8t-35.5 -24t-34.5 -31.5t-36 -42t-32.5 -43.5t-31.5 -47t-26.5 -42.5t-24 -39.5 t-17.5 -29q-60 -100 -191 -312t-198 -324z" />
<glyph unicode="&#xc0;" horiz-adv-x="1589" d="M102 92q1 11 23 21l13 5q76 18 225 54t220 53q62 104 94 156q40 67 122.5 200.5t122.5 200.5q6 9 29.5 48.5t32 53t29.5 47.5t34.5 52t33.5 45.5t39.5 49.5t40.5 43q107 107 175 107q9 0 18 -2q25 -6 38.5 -27.5t16.5 -56.5t2 -63.5t-5 -68.5t-5 -52q-12 -271 -70 -611 q51 2 98 2q66 0 124 -4q23 -1 -6 -18q-23 -14 -35 -14q-83 0 -188 -5q-66 -371 -224 -983q-3 -14 -34 -22q-28 -6 -27 7q27 127 87.5 381.5t87.5 381.5q31 147 46 232q-232 -16 -454 -60q-93 -18 -186 -39q-253 -424 -403 -755q-7 -15 -39 -21q-21 -4 -20 4q0 1 1 2 q140 313 404 757q-57 -13 -207 -49.5t-232 -54.5q-23 -5 -22 3zM639 238q371 86 628 105q50 283 66 507q8 101 9 199q0 5 1 21t1 25t-0.5 24t-3.5 24.5t-7.5 19t-13 14t-20.5 4.5q-16 0 -33 -8t-35.5 -24t-34.5 -31.5t-36 -42t-32.5 -43.5t-31.5 -47t-26.5 -42.5t-24 -39.5 t-17.5 -29q-60 -100 -191 -312t-198 -324z" />
<glyph unicode="B" horiz-adv-x="1398" d="M103 -327q55 227 124 479t159.5 572t134.5 480q4 14 35 22q26 5 24 -7q-80 -296 -119 -445q87 167 200 276q73 70 161 122q73 43 131 44q12 0 23 -2q8 0 10 -2h1v-1l1 -1q10 -13 10 -31.5t-7.5 -39t-22.5 -45.5t-31 -46.5t-37 -47.5t-37 -44t-35 -39t-26 -29 q-90 -104 -138 -154q148 91 285 131q83 24 144 24q45 0 79 -13q75 -29 75 -131q0 -30 -6 -66q-42 -234 -183 -485q225 114 421 168q23 6 22 -2q-2 -11 -26 -23q-6 -2 -11 -4q-188 -54 -430 -180q-6 -9 -17 -26.5t-16 -26.5q-170 -271 -413 -484q-126 -111 -270 -203 q-96 -62 -153 -62q-17 0 -31 6q-6 0 -7 3q-13 19 -14 44t8.5 52t25 55.5t38 58.5t45.5 56.5t49 53.5t46 46t40 37q98 89 307 216q155 95 311 177q59 102 98 194q13 31 22 53t24 59.5t23.5 66.5t19 66.5t13 66t3.5 60t-8 54t-23 41.5t-39.5 28.5t-59.5 10.5h-7 q-107 0 -236 -63q-133 -65 -256 -168q-77 -77 -141 -137q-8 -8 -35 -14q-124 -466 -221 -786q-4 -14 -34 -22q-25 -5 -23 7zM188 -610q11 -1 17.5 -2t20.5 4.5t23.5 9.5t24.5 13t24.5 15t24 16.5t22 16t19 14t15.5 11.5q65 46 130 102q123 104 231 227q119 135 217 295 q-91 -50 -210 -120q-196 -116 -301 -202q-92 -75 -163 -164q-105 -129 -105 -198q0 -22 10 -38zM408 531q50 50 95 87q82 80 183 192q89 100 140 165l20 24t25 30.5t24.5 32t22.5 35t15 32t6 30.5t-9 24q-6 1 -12 1q-34 0 -84 -31q-59 -37 -103 -79t-75 -79 q-138 -163 -248 -464z" />
<glyph unicode="C" horiz-adv-x="1619" d="M102 -263q0 73 16 151q16 80 39 152t58 160q141 355 356 661q232 328 429 360q16 3 30 3q30 0 50 -12q30 -16 40 -50q9 -31 10 -69q0 -4 -1 -8q-1 -43 -13 -90.5t-26.5 -88.5t-31.5 -74q-8 -16 -41 -21q-19 -4 -18 4q0 1 1 2q28 55 45 109t23 113q2 15 2 30q0 41 -13 72 q-12 35 -38 45t-59 -3t-68 -35.5t-70.5 -55.5t-62 -60t-47.5 -52q-189 -223 -362 -594q-82 -176 -131 -319.5t-54 -271.5q-1 -16 -1 -32q0 -215 102 -304q52 -46 133 -46q142 0 372 139q444 268 921 775q13 13 43 17q15 1 14 -4q0 -2 -3 -6q-194 -218 -522 -488 q-66 -54 -131.5 -104.5t-152.5 -111.5t-168 -105.5t-167.5 -83.5t-160.5 -51q-39 -6 -76 -6q-33 0 -64 6q-65 10 -112.5 60.5t-70.5 137.5q-19 70 -19 149z" />
<glyph unicode="D" horiz-adv-x="1642" d="M107 -519q20 73 93 147l26 24q85 71 200 135q61 239 188 689.5t148 527.5q4 14 35 22q26 5 24 -7q-15 -55 -134.5 -506.5t-188.5 -686.5q2 1 45 23t64 33q265 133 571 260q183 238 265 458q34 90 50 178q10 55 10 111q1 33 -3 67q-10 90 -52 149q-35 49 -97 69 q-44 14 -95 13q-22 0 -44 -2q-76 -8 -146.5 -26.5t-145.5 -47.5q-149 -57 -291 -158q-36 -25 -52 -36.5t-55.5 -43t-60 -53t-40.5 -51t-23 -53.5q-2 -15 -34 -24q-27 -8 -26 3q3 29 22 59.5t53.5 62.5t58.5 51.5t63 48.5q11 8 16 12q150 113 309 182q76 33 152 58t160 42 q60 12 115 12q23 0 45 -2q76 -7 125 -40q51 -34 78 -94.5t29 -132.5v-24q0 -60 -8 -120q-10 -72 -34 -144q-73 -233 -270 -493q190 78 474 186q28 10 28.5 -1.5t-26.5 -22.5q-410 -164 -509 -205q-20 -26 -62 -76q-247 -294 -511 -475q-64 -44 -112 -73.5t-117 -65.5 t-131 -52q-43 -11 -81 -11q-17 0 -32 2q-71 10 -71 68q0 15 5 34zM161.5 -536q5.5 -25 32.5 -41q18 -11 45 -11q82 0 248 99q8 4 11 6q118 69 236 165q210 169 405 410q1 1 2.5 3t2.5 3q-221 -93 -413 -184q-152 -73 -244 -124q-23 -81 -40 -136q-4 -14 -36 -22 q-24 -5 -22 7q5 19 14 55.5t13 54.5l-57 -36q-23 -15 -49.5 -36t-56 -48.5t-51 -56t-34 -56t-7 -52.5z" />
<glyph unicode="E" horiz-adv-x="1212" d="M-223 1037q1 12 22 21q3 1 5 2q390 133 799 221q36 88 55 132q7 15 40 22q23 4 22 -5q0 -1 -1 -2l-57 -135q146 30 251 46q491 80 872 80q120 0 229 -8q23 -1 -6 -18q-23 -13 -35 -13q-310 -2 -561 -16t-500 -53q-128 -21 -262 -48q-144 -352 -257 -698q781 127 866 140 q16 2 15 -3q-2 -10 -32 -24q-7 -3 -11 -4q-365 -71 -849 -143l-3 -9q-99 -309 -129 -430q-49 -203 -49 -357v-6q2 -177 91 -241q32 -22 72 -23q103 0 265 143q112 98 232.5 216t263 263t224.5 225q13 13 45 16q12 2 12 -3q1 -2 -3 -6q-198 -206 -465 -466q-17 -17 -76.5 -76 t-88 -86t-79 -72.5t-95.5 -77.5t-90 -58q-92 -52 -163 -52q-10 -1 -20 1q-78 8 -126 65t-60 148q-5 41 -6 85v14q0 38 4 78q6 48 11.5 89.5t19 96.5t22.5 92.5t27.5 98t28.5 92t30.5 95.5t28.5 89q2 8 8 23.5t8 23.5q-66 -10 -209.5 -30.5t-218.5 -31.5q-19 -3 -15 5 q7 13 35 24q5 2 9 3q147 22 409 64q109 333 258 695q-343 -73 -704 -190q-11 -7 -21 -10l-66 -18q-23 -6 -22 4z" />
<glyph unicode="&#xca;" horiz-adv-x="1212" d="M-223 1037q1 12 22 21q3 1 5 2q390 133 799 221q36 88 55 132q7 15 40 22q23 4 22 -5q0 -1 -1 -2l-57 -135q146 30 251 46q491 80 872 80q120 0 229 -8q23 -1 -6 -18q-23 -13 -35 -13q-310 -2 -561 -16t-500 -53q-128 -21 -262 -48q-144 -352 -257 -698q781 127 866 140 q16 2 15 -3q-2 -10 -32 -24q-7 -3 -11 -4q-365 -71 -849 -143l-3 -9q-99 -309 -129 -430q-49 -203 -49 -357v-6q2 -177 91 -241q32 -22 72 -23q103 0 265 143q112 98 232.5 216t263 263t224.5 225q13 13 45 16q12 2 12 -3q1 -2 -3 -6q-198 -206 -465 -466q-17 -17 -76.5 -76 t-88 -86t-79 -72.5t-95.5 -77.5t-90 -58q-92 -52 -163 -52q-10 -1 -20 1q-78 8 -126 65t-60 148q-5 41 -6 85v14q0 38 4 78q6 48 11.5 89.5t19 96.5t22.5 92.5t27.5 98t28.5 92t30.5 95.5t28.5 89q2 8 8 23.5t8 23.5q-66 -10 -209.5 -30.5t-218.5 -31.5q-19 -3 -15 5 q7 13 35 24q5 2 9 3q147 22 409 64q109 333 258 695q-343 -73 -704 -190q-11 -7 -21 -10l-66 -18q-23 -6 -22 4z" />
<glyph unicode="&#xc9;" horiz-adv-x="1212" d="M-223 1037q1 12 22 21q3 1 5 2q390 133 799 221q36 88 55 132q7 15 40 22q23 4 22 -5q0 -1 -1 -2l-57 -135q146 30 251 46q491 80 872 80q120 0 229 -8q23 -1 -6 -18q-23 -13 -35 -13q-310 -2 -561 -16t-500 -53q-128 -21 -262 -48q-144 -352 -257 -698q781 127 866 140 q16 2 15 -3q-2 -10 -32 -24q-7 -3 -11 -4q-365 -71 -849 -143l-3 -9q-99 -309 -129 -430q-49 -203 -49 -357v-6q2 -177 91 -241q32 -22 72 -23q103 0 265 143q112 98 232.5 216t263 263t224.5 225q13 13 45 16q12 2 12 -3q1 -2 -3 -6q-198 -206 -465 -466q-17 -17 -76.5 -76 t-88 -86t-79 -72.5t-95.5 -77.5t-90 -58q-92 -52 -163 -52q-10 -1 -20 1q-78 8 -126 65t-60 148q-5 41 -6 85v14q0 38 4 78q6 48 11.5 89.5t19 96.5t22.5 92.5t27.5 98t28.5 92t30.5 95.5t28.5 89q2 8 8 23.5t8 23.5q-66 -10 -209.5 -30.5t-218.5 -31.5q-19 -3 -15 5 q7 13 35 24q5 2 9 3q147 22 409 64q109 333 258 695q-343 -73 -704 -190q-11 -7 -21 -10l-66 -18q-23 -6 -22 4z" />
<glyph unicode="&#xc8;" horiz-adv-x="1212" d="M-223 1037q1 12 22 21q3 1 5 2q390 133 799 221q36 88 55 132q7 15 40 22q23 4 22 -5q0 -1 -1 -2l-57 -135q146 30 251 46q491 80 872 80q120 0 229 -8q23 -1 -6 -18q-23 -13 -35 -13q-310 -2 -561 -16t-500 -53q-128 -21 -262 -48q-144 -352 -257 -698q781 127 866 140 q16 2 15 -3q-2 -10 -32 -24q-7 -3 -11 -4q-365 -71 -849 -143l-3 -9q-99 -309 -129 -430q-49 -203 -49 -357v-6q2 -177 91 -241q32 -22 72 -23q103 0 265 143q112 98 232.5 216t263 263t224.5 225q13 13 45 16q12 2 12 -3q1 -2 -3 -6q-198 -206 -465 -466q-17 -17 -76.5 -76 t-88 -86t-79 -72.5t-95.5 -77.5t-90 -58q-92 -52 -163 -52q-10 -1 -20 1q-78 8 -126 65t-60 148q-5 41 -6 85v14q0 38 4 78q6 48 11.5 89.5t19 96.5t22.5 92.5t27.5 98t28.5 92t30.5 95.5t28.5 89q2 8 8 23.5t8 23.5q-66 -10 -209.5 -30.5t-218.5 -31.5q-19 -3 -15 5 q7 13 35 24q5 2 9 3q147 22 409 64q109 333 258 695q-343 -73 -704 -190q-11 -7 -21 -10l-66 -18q-23 -6 -22 4z" />
<glyph unicode="F" horiz-adv-x="1150" d="M102 1042q3 12 27 23q5 3 10 4q316 94 598 159l1 1v2q6 12 31.5 20.5t29.5 -2.5q1 -3 -3 -7v-1q704 158 1375 200q19 1 15 -7q-6 -13 -34 -23l-12 -3q-660 -42 -1356 -197q-10 -28 -24 -80.5t-18 -66.5q-26 -86 -77.5 -260t-77.5 -260q348 62 672 79q19 1 3 -13 q-23 -19 -39 -20q-339 -24 -645 -76q-16 -51 -47 -155t-46 -155q-23 -79 -70 -238t-71 -238q-10 -34 -32.5 -115.5t-40.5 -141.5t-39 -115q-5 -14 -39 -22q-23 -5 -21 4q13 63 33 132t49.5 160t41.5 132q37 123 111 370.5t111 371.5q-159 -30 -262 -53q-24 -6 -22 5t25 21 l11 4q123 28 248 51q39 139 39 241q0 208 -163 264q-63 21 -132 21q-66 0 -137 -19q-25 -7 -23 3zM306 1092q80 0 142 -22q152 -52 171 -231q13 41 38 123.5t37 123.5q5 15 14.5 53.5t16.5 58.5q-222 -51 -419 -106z" />
<glyph unicode="G" horiz-adv-x="1382" d="M102 30v6q0 30 4 62q5 35 10.5 65.5t16.5 71.5t18.5 67t20.5 68q77 243 205 482q45 83 85 151t98.5 153t115.5 151t129.5 130t147.5 105q43 24 86 38q39 13 79 13q4 0 8 -1q45 -1 69 -28q20 -22 20 -55q0 -74 -101 -207q-10 -14 -40 -18q-16 -2 -16 5q0 3 3 6 q88 115 92 184v7q0 36 -21 53q-23 18 -60 13.5t-77 -20.5t-73 -40q-150 -107 -317 -351q-279 -407 -397 -841q-17 -63 -26 -105.5t-15 -99.5q-2 -23 -2 -44q0 -32 5 -59q9 -47 33 -84q45 -68 124 -83q12 -2 25 -2q37 0 82 17q61 22 93 43t102 71q13 9 19 13 q124 88 219.5 171.5t185 194.5t138.5 226q-88 -6 -172 -9q-119 -5 -220 -5q-147 0 -254 11q-24 3 6 20q24 14 37 14q62 0 188 6t188 6q24 0 -10 -20q-3 -2 -7 -4q127 3 258 15q1 3 3 8.5t3 8.5q5 14 36 21q24 5 22 -6q7 -2 4 -8q-1 -3 -3.5 -9t-3.5 -9q149 16 229 26 q15 2 15 -4q-1 -9 -26 -21l-9 -4q-103 -22 -223 -32q-17 -44 -96 -243.5t-119 -306.5q-38 -101 -108 -303t-108 -303q-5 -14 -36 -22q-24 -4 -22 7q63 207 211 605q80 214 122 321q-157 -188 -475 -404q-92 -62 -170 -97q-68 -30 -132 -30q-10 0 -19 1q-76 6 -126.5 55.5 t-64.5 123.5q-6 29 -7 62z" />
<glyph unicode="H" horiz-adv-x="1468" d="M104 190q-7 11 16.5 21t33.5 7q94 -26 206 -43q49 167 147.5 501.5t147.5 502.5q4 14 33 19q17 1 16 -6q-49 -171 -147.5 -512.5t-147.5 -511.5q104 -13 199 -13q113 0 214 18q234 40 317 160q63 93 116.5 216.5t83.5 221.5t72 245t69 228q5 15 38 22q21 4 20 -6 q-19 -65 -57 -196t-57 -196q-47 -160 -144 -485t-170.5 -579.5t-136.5 -486.5q-4 -16 -36 -22q-22 -4 -21 6q26 95 80 285q154 534 232 800q-35 -56 -72 -92q-117 -114 -354 -154q-104 -18 -222 -18q-87 0 -181 10q-34 -116 -100 -346.5t-100 -345.5q-4 -14 -35 -22 q-24 -5 -23 6q21 97 32 157q11 61 20 153q6 57 6 105q-1 29 -3 55q-6 68 -28 148t-64 148zM187 167q69 -136 69 -318q0 -17 -1 -34q22 76 95 323q-80 10 -163 29z" />
<glyph unicode="I" horiz-adv-x="1067" d="M112 -646q-22 0 4 17q24 16 37 16q89 0 269 6q102 442 232 870q14 61 23 103q53 244 64 338q7 64 7 121q0 194 -87 302q-26 31 -59 57q-10 8 20 20q29 12 40 8q104 -53 294 -60q4 12 13 36.5t14 36.5q6 15 38 22q23 5 23 -5q-1 -1 -1 -2q-5 -15 -17 -45t-17 -45h80t79 -1 q11 0 15.5 0.5t6 1t7.5 2t17 3.5q20 3 76 3q28 0 66 -1q23 -1 -5 -18q-24 -15 -37 -15h-15q-43 -1 -99 -5q-64 -6 -106 -5h-98q-153 -410 -280 -832q-31 -131 -70.5 -280t-88.5 -327.5t-76 -280.5l267 12q22 1 -4 -16q-18 -13 -29 -14q-254 -21 -603 -23zM734 1139 q76 -105 75 -289q0 -59 -7 -126q79 229 140 393q-120 3 -208 22z" />
<glyph unicode="&#xce;" horiz-adv-x="1067" d="M112 -646q-22 0 4 17q24 16 37 16q89 0 269 6q102 442 232 870q14 61 23 103q53 244 64 338q7 64 7 121q0 194 -87 302q-26 31 -59 57q-10 8 20 20q29 12 40 8q104 -53 294 -60q4 12 13 36.5t14 36.5q6 15 38 22q23 5 23 -5q-1 -1 -1 -2q-5 -15 -17 -45t-17 -45h80t79 -1 q11 0 15.5 0.5t6 1t7.5 2t17 3.5q20 3 76 3q28 0 66 -1q23 -1 -5 -18q-24 -15 -37 -15h-15q-43 -1 -99 -5q-64 -6 -106 -5h-98q-153 -410 -280 -832q-31 -131 -70.5 -280t-88.5 -327.5t-76 -280.5l267 12q22 1 -4 -16q-18 -13 -29 -14q-254 -21 -603 -23zM734 1139 q76 -105 75 -289q0 -59 -7 -126q79 229 140 393q-120 3 -208 22z" />
<glyph unicode="&#xcd;" horiz-adv-x="1067" d="M112 -646q-22 0 4 17q24 16 37 16q89 0 269 6q102 442 232 870q14 61 23 103q53 244 64 338q7 64 7 121q0 194 -87 302q-26 31 -59 57q-10 8 20 20q29 12 40 8q104 -53 294 -60q4 12 13 36.5t14 36.5q6 15 38 22q23 5 23 -5q-1 -1 -1 -2q-5 -15 -17 -45t-17 -45h80t79 -1 q11 0 15.5 0.5t6 1t7.5 2t17 3.5q20 3 76 3q28 0 66 -1q23 -1 -5 -18q-24 -15 -37 -15h-15q-43 -1 -99 -5q-64 -6 -106 -5h-98q-153 -410 -280 -832q-31 -131 -70.5 -280t-88.5 -327.5t-76 -280.5l267 12q22 1 -4 -16q-18 -13 -29 -14q-254 -21 -603 -23zM734 1139 q76 -105 75 -289q0 -59 -7 -126q79 229 140 393q-120 3 -208 22z" />
<glyph unicode="&#xcc;" horiz-adv-x="1067" d="M112 -646q-22 0 4 17q24 16 37 16q89 0 269 6q102 442 232 870q14 61 23 103q53 244 64 338q7 64 7 121q0 194 -87 302q-26 31 -59 57q-10 8 20 20q29 12 40 8q104 -53 294 -60q4 12 13 36.5t14 36.5q6 15 38 22q23 5 23 -5q-1 -1 -1 -2q-5 -15 -17 -45t-17 -45h80t79 -1 q11 0 15.5 0.5t6 1t7.5 2t17 3.5q20 3 76 3q28 0 66 -1q23 -1 -5 -18q-24 -15 -37 -15h-15q-43 -1 -99 -5q-64 -6 -106 -5h-98q-153 -410 -280 -832q-31 -131 -70.5 -280t-88.5 -327.5t-76 -280.5l267 12q22 1 -4 -16q-18 -13 -29 -14q-254 -21 -603 -23zM734 1139 q76 -105 75 -289q0 -59 -7 -126q79 229 140 393q-120 3 -208 22z" />
<glyph unicode="J" horiz-adv-x="1536" d="M108 -635q-5 14 -5 29q0 25 13 54q22 48 70 98t86 84t80 67q181 141 472 297q146 78 224 117q68 86 128 170q122 171 206.5 314.5t130.5 284.5q35 106 35 177q0 65 -28 102q-32 42 -104 42q-85 0 -228 -60q-261 -111 -558 -369q-132 -115 -236 -236q-48 -56 -88 -110 q-42 -58 -61 -88l-22 -39q-19 -41 6 -32q3 2 8 4q18 10 39 7q17 -3 -7 -16q-49 -26 -86 -26q-20 0 -37 7q-8 3 -4 8q201 340 563 620q177 137 343.5 230t326.5 122q46 8 83 8q154 0 154 -146v-12q-8 -204 -273 -623q-95 -150 -180 -261q-5 -6 -15 -19t-15 -19 q298 145 525 210q20 6 20 -1q-1 -10 -23 -22l-10 -4q-232 -70 -547 -228q-229 -285 -492 -517q-156 -138 -282 -201q-105 -53 -159 -53q-41 0 -53 30zM183 -543q-13 -29 -13 -47q0 -30 36 -30h4q57 3 144 56q60 36 146 106q105 86 239 222q140 141 270 299 q-26 -13 -73 -38.5t-65 -34.5q-261 -139 -419 -254q-62 -45 -105.5 -81t-92.5 -91t-71 -107z" />
<glyph unicode="K" horiz-adv-x="1415" d="M103 -645q43 178 109 398q-71 8 -80 46q-1 5 -1 11q0 46 75 126q45 48 93 93q41 126 125.5 374.5t148.5 445.5t114 374q3 13 33 20q24 5 22 -6q-14 -55 -31 -114.5t-30 -106.5t-34.5 -117.5t-32.5 -106.5t-36.5 -117t-33.5 -106.5t-38 -117.5t-35 -106.5t-39 -117 t-36 -109.5q7 6 20.5 18.5t20.5 18.5q176 160 605.5 527.5t650.5 576.5q15 14 48 17q12 1 13 -3q0 -2 -4 -6q-161 -152 -600 -530q-468 -404 -634 -554q-48 -43 -142 -131l-87 -267q37 -4 115 -6h42q384 0 984 101q19 3 14 -5q-6 -13 -34 -24l-9 -3q-247 -42 -494 -69 q-94 -10 -130.5 -14t-120.5 -11.5t-134.5 -9.5t-118.5 -2t-126 5q-70 -220 -115 -378q-4 -13 -34 -21q-25 -4 -23 7zM226 -201q37 121 49 157l-1 -1q-72 -75 -72 -117q0 -25 24 -39z" />
<glyph unicode="L" horiz-adv-x="888" d="M103 -396q-3 22 2 51t10 49t15 54t13 45q189 710 427 1478q4 14 36 22q26 5 24 -7q-208 -673 -360 -1231q-35 -130 -82 -308q-22 -83 -22 -118q0 -8 1 -14q5 -26 20.5 -40.5t42 -16.5t49 0.5t56.5 9.5q281 58 623 209q21 9 33.5 3t-15.5 -19q-329 -150 -655 -223 q-38 -9 -58.5 -12.5t-54 -6t-56 7t-35.5 29.5q-11 16 -14 38z" />
<glyph unicode="M" horiz-adv-x="2058" d="M103 -628q70 406 186 827.5t294 978.5q4 14 35 20q23 5 21 -6q-217 -712 -296 -1007q-82 -306 -135 -567q157 357 317 638t374 523q5 6 24.5 28.5t29.5 33t29.5 31t34 31.5t33.5 23.5t37.5 19t36.5 7.5q16 1 27.5 -4t18.5 -15.5t11.5 -22t5.5 -29t1 -32t-2 -34.5 t-3.5 -32.5t-4.5 -30.5l-4 -24q-9 -64 -21 -131t-29 -144.5t-29 -128.5t-35 -145.5t-32 -132.5q85 122 174 233q66 81 146 171q4 5 19 22t21.5 24t20 21.5t23 23t22.5 18.5t25 18q51 32 84 32q60 0 60 -106v-5q0 -74 -28 -186q-6 -26 -11 -48.5t-10.5 -53.5t-7.5 -56.5 t-3 -54t3.5 -49.5t12.5 -41t23.5 -29.5t36.5 -13t51 5t68 27.5q108 56 219.5 140t180.5 168q12 14 42 17q14 1 14 -4q0 -3 -3 -6q-112 -137 -353 -287q-163 -100 -253 -100q-52 0 -80 33q-35 41 -37 111v11q0 64 17 123q18 64 37.5 144.5t19.5 128.5q0 37 -5 52 q-9 22 -20.5 29.5t-28 -2t-28 -20t-31.5 -31.5q-67 -71 -149 -170q-157 -189 -299 -407q-9 -14 -40 -23q-24 -6 -23 7q14 63 51 223t62.5 275t45.5 222q17 89 21 156q0 3 2.5 24.5t1.5 35.5t-5 22q2 25 -15 28.5t-53 -14.5q-4 -3 -11 -10.5t-10 -11.5q-15 -13 -31.5 -29.5 t-28.5 -29t-30.5 -34.5t-27 -32t-28.5 -36.5t-25 -33t-27 -36.5t-24 -32q-101 -136 -190 -282t-175 -322t-136 -287.5t-139 -318.5q-5 -14 -40 -23q-25 -7 -23 4z" />
<glyph unicode="N" horiz-adv-x="1918" d="M103 -587q4 13 12 39.5t12 39.5q282 899 527 1767q4 14 34 22q25 5 23 -7q-150 -536 -300 -1039q81 170 176 321q148 237 337 438q87 92 167 147t167 57h6q64 0 92 -43q27 -40 26 -92v-14q-4 -61 -8 -123q0 -5 -0.5 -7.5t-1 -6.5t-0.5 -7q-8 -73 -21.5 -155t-34 -187 t-29.5 -156q-33 -188 -33 -324q0 -77 11 -137q20 -115 101 -115q46 0 111 37q146 81 290.5 220t240.5 283q10 15 43 21q18 3 17 -4q0 -1 -1 -2q-89 -144 -238 -286t-303 -233q-127 -75 -208 -75q-7 0 -14 1q-26 2 -45.5 14.5t-30 27.5t-18.5 41t-10.5 44t-5.5 48 q-5 48 -5 101q-1 65 7 139q14 134 37.5 243t48.5 249.5t32 242.5q0 6 2 26.5t2 29.5t0.5 28.5t-0.5 30t-3.5 27t-7.5 26.5t-12 21t-17.5 18t-23.5 11q-19 6 -38 6q-20 -1 -40 -7q-40 -12 -89 -53.5t-70.5 -63.5t-68.5 -76q-14 -15 -20 -22q-198 -221 -353 -496 q-127 -226 -221 -469t-190 -552q-5 -15 -37 -22q-26 -5 -24 7z" />
<glyph unicode="O" horiz-adv-x="1654" d="M110 -273q13 90 31 167q-32 44 -32 122q0 64 22 152q55 222 182 443.5t303 395.5l3 3q46 71 90.5 118.5t105.5 72.5q52 22 97 22q19 0 37 -4q80 26 156 26q33 0 65 -5q113 -17 186 -87q74 -69 104 -165q27 -87 26 -192v-22q-8 -362 -237 -726q-107 -169 -248 -318 t-298 -244q-96 -58 -200 -88q-73 -21 -145 -21q-30 -1 -58 3q-100 12 -151 81q-46 61 -46 170q0 44 7 96zM168 -333v-19q0 -35 6 -63q8 -36 22.5 -70t44.5 -57.5t72 -35.5q36 -12 77 -12h18q50 4 96.5 15t96 35.5t94 52.5t90.5 65.5t84.5 73.5t77.5 77q231 242 359 532 q115 260 115 502q0 28 -2 57q-8 148 -77.5 251.5t-203.5 131.5q-34 8 -70 8q-40 0 -82 -10q8 -6 17 -20q4 -7 -9.5 -16.5t-28 -12.5t-19.5 2q-9 16 -23 28q-125 -48 -254 -174q-12 -19 -30.5 -48.5t-19.5 -31.5q-102 -170 -182 -341q-156 -334 -230 -664q32 -45 83 -61 q20 -6 43 -6q34 0 73 14q24 11 36 2q11 -7 -17 -19q-69 -30 -129 -30q-56 0 -104 27l-3 -12q-9 -48 -14 -86.5t-7 -84.5zM174 26q21 74 28 97q106 344 291 677q-189 -261 -274 -534q-45 -148 -45 -227v-13zM761 1126q71 46 132 72q-6 1 -13 1q-51 0 -119 -73z" />
<glyph unicode="&#xd6;" horiz-adv-x="1654" d="M110 -273q13 90 31 167q-32 44 -32 122q0 64 22 152q55 222 182 443.5t303 395.5l3 3q46 71 90.5 118.5t105.5 72.5q52 22 97 22q19 0 37 -4q80 26 156 26q33 0 65 -5q113 -17 186 -87q74 -69 104 -165q27 -87 26 -192v-22q-8 -362 -237 -726q-107 -169 -248 -318 t-298 -244q-96 -58 -200 -88q-73 -21 -145 -21q-30 -1 -58 3q-100 12 -151 81q-46 61 -46 170q0 44 7 96zM168 -333v-19q0 -35 6 -63q8 -36 22.5 -70t44.5 -57.5t72 -35.5q36 -12 77 -12h18q50 4 96.5 15t96 35.5t94 52.5t90.5 65.5t84.5 73.5t77.5 77q231 242 359 532 q115 260 115 502q0 28 -2 57q-8 148 -77.5 251.5t-203.5 131.5q-34 8 -70 8q-40 0 -82 -10q8 -6 17 -20q4 -7 -9.5 -16.5t-28 -12.5t-19.5 2q-9 16 -23 28q-125 -48 -254 -174q-12 -19 -30.5 -48.5t-19.5 -31.5q-102 -170 -182 -341q-156 -334 -230 -664q32 -45 83 -61 q20 -6 43 -6q34 0 73 14q24 11 36 2q11 -7 -17 -19q-69 -30 -129 -30q-56 0 -104 27l-3 -12q-9 -48 -14 -86.5t-7 -84.5zM174 26q21 74 28 97q106 344 291 677q-189 -261 -274 -534q-45 -148 -45 -227v-13zM761 1126q71 46 132 72q-6 1 -13 1q-51 0 -119 -73z" />
<glyph unicode="&#xd5;" horiz-adv-x="1654" d="M110 -273q13 90 31 167q-32 44 -32 122q0 64 22 152q55 222 182 443.5t303 395.5l3 3q46 71 90.5 118.5t105.5 72.5q52 22 97 22q19 0 37 -4q80 26 156 26q33 0 65 -5q113 -17 186 -87q74 -69 104 -165q27 -87 26 -192v-22q-8 -362 -237 -726q-107 -169 -248 -318 t-298 -244q-96 -58 -200 -88q-73 -21 -145 -21q-30 -1 -58 3q-100 12 -151 81q-46 61 -46 170q0 44 7 96zM168 -333v-19q0 -35 6 -63q8 -36 22.5 -70t44.5 -57.5t72 -35.5q36 -12 77 -12h18q50 4 96.5 15t96 35.5t94 52.5t90.5 65.5t84.5 73.5t77.5 77q231 242 359 532 q115 260 115 502q0 28 -2 57q-8 148 -77.5 251.5t-203.5 131.5q-34 8 -70 8q-40 0 -82 -10q8 -6 17 -20q4 -7 -9.5 -16.5t-28 -12.5t-19.5 2q-9 16 -23 28q-125 -48 -254 -174q-12 -19 -30.5 -48.5t-19.5 -31.5q-102 -170 -182 -341q-156 -334 -230 -664q32 -45 83 -61 q20 -6 43 -6q34 0 73 14q24 11 36 2q11 -7 -17 -19q-69 -30 -129 -30q-56 0 -104 27l-3 -12q-9 -48 -14 -86.5t-7 -84.5zM174 26q21 74 28 97q106 344 291 677q-189 -261 -274 -534q-45 -148 -45 -227v-13zM761 1126q71 46 132 72q-6 1 -13 1q-51 0 -119 -73z" />
<glyph unicode="&#xd4;" horiz-adv-x="1654" d="M110 -273q13 90 31 167q-32 44 -32 122q0 64 22 152q55 222 182 443.5t303 395.5l3 3q46 71 90.5 118.5t105.5 72.5q52 22 97 22q19 0 37 -4q80 26 156 26q33 0 65 -5q113 -17 186 -87q74 -69 104 -165q27 -87 26 -192v-22q-8 -362 -237 -726q-107 -169 -248 -318 t-298 -244q-96 -58 -200 -88q-73 -21 -145 -21q-30 -1 -58 3q-100 12 -151 81q-46 61 -46 170q0 44 7 96zM168 -333v-19q0 -35 6 -63q8 -36 22.5 -70t44.5 -57.5t72 -35.5q36 -12 77 -12h18q50 4 96.5 15t96 35.5t94 52.5t90.5 65.5t84.5 73.5t77.5 77q231 242 359 532 q115 260 115 502q0 28 -2 57q-8 148 -77.5 251.5t-203.5 131.5q-34 8 -70 8q-40 0 -82 -10q8 -6 17 -20q4 -7 -9.5 -16.5t-28 -12.5t-19.5 2q-9 16 -23 28q-125 -48 -254 -174q-12 -19 -30.5 -48.5t-19.5 -31.5q-102 -170 -182 -341q-156 -334 -230 -664q32 -45 83 -61 q20 -6 43 -6q34 0 73 14q24 11 36 2q11 -7 -17 -19q-69 -30 -129 -30q-56 0 -104 27l-3 -12q-9 -48 -14 -86.5t-7 -84.5zM174 26q21 74 28 97q106 344 291 677q-189 -261 -274 -534q-45 -148 -45 -227v-13zM761 1126q71 46 132 72q-6 1 -13 1q-51 0 -119 -73z" />
<glyph unicode="&#xd3;" horiz-adv-x="1654" d="M110 -273q13 90 31 167q-32 44 -32 122q0 64 22 152q55 222 182 443.5t303 395.5l3 3q46 71 90.5 118.5t105.5 72.5q52 22 97 22q19 0 37 -4q80 26 156 26q33 0 65 -5q113 -17 186 -87q74 -69 104 -165q27 -87 26 -192v-22q-8 -362 -237 -726q-107 -169 -248 -318 t-298 -244q-96 -58 -200 -88q-73 -21 -145 -21q-30 -1 -58 3q-100 12 -151 81q-46 61 -46 170q0 44 7 96zM168 -333v-19q0 -35 6 -63q8 -36 22.5 -70t44.5 -57.5t72 -35.5q36 -12 77 -12h18q50 4 96.5 15t96 35.5t94 52.5t90.5 65.5t84.5 73.5t77.5 77q231 242 359 532 q115 260 115 502q0 28 -2 57q-8 148 -77.5 251.5t-203.5 131.5q-34 8 -70 8q-40 0 -82 -10q8 -6 17 -20q4 -7 -9.5 -16.5t-28 -12.5t-19.5 2q-9 16 -23 28q-125 -48 -254 -174q-12 -19 -30.5 -48.5t-19.5 -31.5q-102 -170 -182 -341q-156 -334 -230 -664q32 -45 83 -61 q20 -6 43 -6q34 0 73 14q24 11 36 2q11 -7 -17 -19q-69 -30 -129 -30q-56 0 -104 27l-3 -12q-9 -48 -14 -86.5t-7 -84.5zM174 26q21 74 28 97q106 344 291 677q-189 -261 -274 -534q-45 -148 -45 -227v-13zM761 1126q71 46 132 72q-6 1 -13 1q-51 0 -119 -73z" />
<glyph unicode="&#xd2;" horiz-adv-x="1654" d="M110 -273q13 90 31 167q-32 44 -32 122q0 64 22 152q55 222 182 443.5t303 395.5l3 3q46 71 90.5 118.5t105.5 72.5q52 22 97 22q19 0 37 -4q80 26 156 26q33 0 65 -5q113 -17 186 -87q74 -69 104 -165q27 -87 26 -192v-22q-8 -362 -237 -726q-107 -169 -248 -318 t-298 -244q-96 -58 -200 -88q-73 -21 -145 -21q-30 -1 -58 3q-100 12 -151 81q-46 61 -46 170q0 44 7 96zM168 -333v-19q0 -35 6 -63q8 -36 22.5 -70t44.5 -57.5t72 -35.5q36 -12 77 -12h18q50 4 96.5 15t96 35.5t94 52.5t90.5 65.5t84.5 73.5t77.5 77q231 242 359 532 q115 260 115 502q0 28 -2 57q-8 148 -77.5 251.5t-203.5 131.5q-34 8 -70 8q-40 0 -82 -10q8 -6 17 -20q4 -7 -9.5 -16.5t-28 -12.5t-19.5 2q-9 16 -23 28q-125 -48 -254 -174q-12 -19 -30.5 -48.5t-19.5 -31.5q-102 -170 -182 -341q-156 -334 -230 -664q32 -45 83 -61 q20 -6 43 -6q34 0 73 14q24 11 36 2q11 -7 -17 -19q-69 -30 -129 -30q-56 0 -104 27l-3 -12q-9 -48 -14 -86.5t-7 -84.5zM174 26q21 74 28 97q106 344 291 677q-189 -261 -274 -534q-45 -148 -45 -227v-13zM761 1126q71 46 132 72q-6 1 -13 1q-51 0 -119 -73z" />
<glyph unicode="P" horiz-adv-x="1378" d="M103 -680q151 509 197 811q33 220 33 350q0 23 -1 43q-5 99 -27 164q-6 18 -14.5 35t-22.5 38t-30 32.5t-38.5 17.5t-46.5 -7q-20 -8 -38 -5q-11 2 5 14q251 184 523 301l36 120q3 12 31 19q22 4 20 -6q-6 -18 -16 -55t-16 -55q196 80 375 110q138 24 247 24 q143 0 235 -41q99 -42 109 -142q1 -13 2 -27q0 -88 -60 -186q-106 -183 -280.5 -353.5t-372.5 -295.5q-190 -121 -365 -204l-22 -11t-33.5 -16.5t-36.5 -16t-37 -13t-30.5 -4.5t-20.5 7q-6 6 8.5 16t30.5 15l24 -1q6 0 96 42q61 29 181 95q231 130 350 227q161 130 301 298 q202 241 202 387q0 20 -4 39q-21 100 -161 133q-89 21 -188 21q-247 0 -558 -131q-94 -322 -272 -921t-253 -852q-4 -15 -37 -23q-27 -6 -25 7zM211 844q9 1 17 1q36 1 65 -17q35 -22 54.5 -58.5t31.5 -90.5t15 -105q2 -31 2 -65q0 -23 -1 -47q-2 -61 -5.5 -101t-8.5 -81 q-2 -20 -8 -60q235 778 261 865q-218 -98 -423 -241z" />
<glyph unicode="Q" horiz-adv-x="1708" d="M104 -333q3 40 15.5 99t23 95.5t27.5 92.5q62 205 171 406.5t254 372.5q83 97 202 158q91 47 168 47q24 0 47 -5q204 261 402 323q61 22 130 22h17q79 -3 121 -44q52 -50 52 -172q0 -63 -14 -145q-57 -335 -303 -727q-68 -108 -158 -219q4 -151 23 -209q18 -55 56.5 -93 t93.5 -49q23 -3 48 -3q17 0 35 1q44 4 86.5 31t56.5 70q5 15 38 23q26 5 24 -7q-16 -54 -67 -90.5t-111 -49.5q-55 -12 -109 -12h-8q-58 1 -93 17t-59.5 41.5t-38 50.5t-22 64.5t-11 67.5t-4.5 74q-143 -159 -306 -278q-316 -231 -544 -231q-49 0 -94 11q-48 11 -80 38 t-48.5 59.5t-20.5 80.5q-1 27 -1 50q0 21 1 39zM167 -362v-13q0 -31 7 -67q10 -42 34 -70q57 -64 169 -64q38 0 82 7q151 25 315 137.5t309 261.5q51 52 111 124q-6 97 -22 146q-112 -104 -169 -155q-75 -67 -133 -93q-52 -23 -102 -23q-21 0 -41 4q-70 13 -103 66 q-16 26 -21 65q-4 28 -4 52q0 10 1 19q2 32 14.5 85.5t19 77t23.5 77.5q70 227 210 448q80 123 117 173q-25 8 -52 8q-54 0 -116 -32q-93 -47 -165 -132q-118 -140 -228 -334q-194 -341 -246 -680q-8 -52 -10 -88zM672 73q-3 -24 -3 -45q0 -51 17 -92q23 -59 92 -69 q8 -1 16 -1q28 0 60 13q42 17 87 53t80 68.5t80 77.5t63 61q12 12 33 19t30 -3q22 -46 29 -123q141 187 241.5 398t145.5 412q25 112 25 194q0 60 -13 104q-24 79 -109 98q-25 6 -50 6q-61 0 -126 -32q-53 -25 -110 -73.5t-91.5 -87.5t-85.5 -102q-9 -10 -25 -32 q22 -10 36 -23q8 -7 -19 -21q-29 -15 -38 -7q-2 1 -5.5 4t-5.5 5q-86 -114 -149 -226q-171 -303 -205 -576z" />
<glyph unicode="R" horiz-adv-x="1470" d="M-53 -680q115 391 207 860q52 262 61 404q1 11 1 21q0 29 -4 59q-6 40 -20.5 78t-40 60t-63.5 26q-5 1 -11 1q-35 0 -80 -25q-14 -8 -34 -5q-17 1 1 14q255 185 523 301l36 120q3 12 31 19q22 4 20 -6q-5 -19 -16 -55.5t-16 -54.5q211 85 399 114q125 19 224 19 q161 0 254 -50q70 -38 85 -108q5 -25 5 -50q0 -46 -18 -96q-28 -76 -86 -160q-265 -383 -701 -629q-205 -116 -369 -187q-4 -2 -26 -12t-44.5 -19.5t-41.5 -15.5l1 -1q11 -6 16.5 -18.5t10 -36t5.5 -26.5q25 -94 37 -125q45 -114 166 -164q71 -29 150 -29q27 0 57 4 q110 14 224 77q287 162 569 549q10 13 43 17q15 2 14 -4q0 -1 -1 -2q-133 -193 -302 -354.5t-354 -249.5q-152 -73 -286 -73q-70 0 -135 20q-131 40 -182 128q-22 38 -46 119q-1 3 -10 52t-19 69q-1 -1 -3.5 -1t-3.5 -1q-28 -93 -82.5 -278.5t-81.5 -278.5q-4 -15 -38 -23 q-27 -6 -25 7zM73 856q22 4 43 4q54 0 93 -30q54 -42 68 -130q5 -34 6 -70q0 -5 1 -9q0 -33 -6 -76q-6 -49 -10 -72.5t-16 -88t-14 -73.5q-4 -27 -11 -59q193 639 251 833q-208 -93 -405 -229zM198 -28q23 8 28 1q-1 1 2 2.5t11 3.5t13 4q56 22 70 28q77 34 161 77 q220 112 367 209q134 88 294 251q236 241 291 416q14 46 14 84q0 119 -139 163q-81 25 -191 25t-249 -25q-162 -30 -336 -102q-166 -569 -336 -1137z" />
<glyph unicode="S" horiz-adv-x="1439" d="M103 -646q0 4 1 9q4 19 18.5 41t30.5 39t44.5 40t44.5 34.5t46.5 32.5t36.5 25q159 112 419 269q163 98 302 179q41 84 41 131q0 10 -2 17q-12 57 -101 72q-53 11 -114 11h-11q-59 0 -139 -5q-88 -5 -119 -6q-18 0 -56 -2.5t-66 -3.5q-27 -1 -67 -1q-4 0 -9 -1 q-34 0 -59 4q-28 4 -58 11.5t-46 22.5t-25 36t-2 53t29 73q158 288 468 545q146 122 279 194q129 71 254 70h7q142 -2 173 -90q6 -18 6 -44q1 -41 -15 -103q-26 -101 -26 -134q0 -14 -31 -24q-28 -7 -29 3v5q0 31 12 81q12 54 22 94q6 23 6 47q0 17 -3 34q-7 42 -40 66 q-45 33 -105 35h-9q-56 0 -117 -23q-65 -25 -123 -58t-117 -77q-201 -151 -359 -335q-71 -84 -141 -189q-60 -92 -74 -130q-12 -35 -8 -61q5 -27 27 -44t51.5 -23.5t71.5 -7.5h23q28 0 52 2q33 2 74 5t58 4q33 1 125 5q83 4 119 5q4 -1 7 -1q34 0 122 -5q72 -7 114 -35 q36 -24 36 -71q0 -8 -1 -17q-4 -36 -26 -89q205 118 397 217q19 10 35 4q12 -5 -6 -15q-2 -1 -3 -2q-243 -131 -443 -247q-33 -64 -83 -135q-174 -252 -479 -428q-144 -83 -273 -129q-75 -27 -117 -27q-51 0 -50 40v7zM167 -632q3 -8 46 -10t52 1q17 4 93 38q94 41 174 90 q156 94 284.5 220t206.5 271q-220 -129 -348 -208q-261 -160 -389 -260q-4 -3 -16.5 -13t-18.5 -14.5t-17 -13.5t-17.5 -16t-14.5 -16t-14 -17q-25 -39 -21 -52z" />
<glyph unicode="T" horiz-adv-x="972" d="M-47 1072q3 12 30 26q5 3 9 4q155 46 276 54q239 42 493 73q0 1 0.5 2.5t0.5 2.5q4 14 36 23q24 5 22 -6l-3 -15q435 51 944 67q23 1 -2.5 -16.5t-39.5 -18.5q-605 -40 -912 -72q-111 -449 -274 -1007q-57 -197 -163 -538q-59 -188 -83 -262l-4.5 -13.5t-4.5 -13 t-4.5 -11.5t-5 -12t-5.5 -10.5t-7.5 -10.5t-9 -8.5t-11.5 -9t-13 -7.5q-22 -12 -34 -5q-11 6 15 20q3 2 7.5 12t9 25t8.5 29t7 27.5t4 15.5l39 123q52 164 77 246q77 250 143 478q61 210 142 508q-6 0 -8.5 1.5t-1.5 5.5q0 1 1 3t1 3q-5 -1 -9 0.5t-3 4.5q3 24 3 47 q0 65 -28 121q-38 74 -115 117q-86 47 -207 47q-14 0 -28 -1q-115 -19 -275 -52q-19 -4 -17 3zM421 1148q38 -7 80 -23q67 -28 112.5 -76.5t62.5 -114.5q64 220 74 256q-166 -18 -329 -42z" />
<glyph unicode="U" horiz-adv-x="1390" d="M104 -29q6 112 16.5 197.5t28.5 211.5q65 443 186 883q4 14 35 22q26 5 24 -7q-125 -463 -187 -904q-14 -102 -22.5 -177t-14.5 -167q-4 -61 -4 -119q0 -29 1 -57q3 -84 15 -161q22 -141 50 -199q34 -70 89 -77q26 -3 53 4t49.5 18t50.5 36.5t44.5 41.5t44.5 51.5 t38.5 49.5t36.5 51.5t30 42.5q114 161 217.5 333.5t206 375.5t165.5 337.5t171 371.5q7 15 41 23q24 6 24 -5q-1 -1 -1 -2q-109 -329 -293.5 -935t-261.5 -847q-4 -14 -36 -22q-24 -4 -22 7q206 719 415 1370q-148 -311 -273 -531q-118 -209 -247 -398q-4 -6 -24 -35.5 t-26.5 -38.5t-24.5 -35t-27.5 -38t-26.5 -34.5t-29.5 -36.5t-29 -32.5t-32 -33.5t-32.5 -30q-112 -97 -209 -97q-10 0 -20 1q-36 4 -63 22.5t-44.5 50t-27.5 57.5t-20 65q-24 88 -32 186q-5 56 -4 116q-1 45 2 94z" />
<glyph unicode="&#xdb;" horiz-adv-x="1390" d="M104 -29q6 112 16.5 197.5t28.5 211.5q65 443 186 883q4 14 35 22q26 5 24 -7q-125 -463 -187 -904q-14 -102 -22.5 -177t-14.5 -167q-4 -61 -4 -119q0 -29 1 -57q3 -84 15 -161q22 -141 50 -199q34 -70 89 -77q26 -3 53 4t49.5 18t50.5 36.5t44.5 41.5t44.5 51.5 t38.5 49.5t36.5 51.5t30 42.5q114 161 217.5 333.5t206 375.5t165.5 337.5t171 371.5q7 15 41 23q24 6 24 -5q-1 -1 -1 -2q-109 -329 -293.5 -935t-261.5 -847q-4 -14 -36 -22q-24 -4 -22 7q206 719 415 1370q-148 -311 -273 -531q-118 -209 -247 -398q-4 -6 -24 -35.5 t-26.5 -38.5t-24.5 -35t-27.5 -38t-26.5 -34.5t-29.5 -36.5t-29 -32.5t-32 -33.5t-32.5 -30q-112 -97 -209 -97q-10 0 -20 1q-36 4 -63 22.5t-44.5 50t-27.5 57.5t-20 65q-24 88 -32 186q-5 56 -4 116q-1 45 2 94z" />
<glyph unicode="&#xda;" horiz-adv-x="1390" d="M104 -29q6 112 16.5 197.5t28.5 211.5q65 443 186 883q4 14 35 22q26 5 24 -7q-125 -463 -187 -904q-14 -102 -22.5 -177t-14.5 -167q-4 -61 -4 -119q0 -29 1 -57q3 -84 15 -161q22 -141 50 -199q34 -70 89 -77q26 -3 53 4t49.5 18t50.5 36.5t44.5 41.5t44.5 51.5 t38.5 49.5t36.5 51.5t30 42.5q114 161 217.5 333.5t206 375.5t165.5 337.5t171 371.5q7 15 41 23q24 6 24 -5q-1 -1 -1 -2q-109 -329 -293.5 -935t-261.5 -847q-4 -14 -36 -22q-24 -4 -22 7q206 719 415 1370q-148 -311 -273 -531q-118 -209 -247 -398q-4 -6 -24 -35.5 t-26.5 -38.5t-24.5 -35t-27.5 -38t-26.5 -34.5t-29.5 -36.5t-29 -32.5t-32 -33.5t-32.5 -30q-112 -97 -209 -97q-10 0 -20 1q-36 4 -63 22.5t-44.5 50t-27.5 57.5t-20 65q-24 88 -32 186q-5 56 -4 116q-1 45 2 94z" />
<glyph unicode="&#xd9;" horiz-adv-x="1390" d="M104 -29q6 112 16.5 197.5t28.5 211.5q65 443 186 883q4 14 35 22q26 5 24 -7q-125 -463 -187 -904q-14 -102 -22.5 -177t-14.5 -167q-4 -61 -4 -119q0 -29 1 -57q3 -84 15 -161q22 -141 50 -199q34 -70 89 -77q26 -3 53 4t49.5 18t50.5 36.5t44.5 41.5t44.5 51.5 t38.5 49.5t36.5 51.5t30 42.5q114 161 217.5 333.5t206 375.5t165.5 337.5t171 371.5q7 15 41 23q24 6 24 -5q-1 -1 -1 -2q-109 -329 -293.5 -935t-261.5 -847q-4 -14 -36 -22q-24 -4 -22 7q206 719 415 1370q-148 -311 -273 -531q-118 -209 -247 -398q-4 -6 -24 -35.5 t-26.5 -38.5t-24.5 -35t-27.5 -38t-26.5 -34.5t-29.5 -36.5t-29 -32.5t-32 -33.5t-32.5 -30q-112 -97 -209 -97q-10 0 -20 1q-36 4 -63 22.5t-44.5 50t-27.5 57.5t-20 65q-24 88 -32 186q-5 56 -4 116q-1 45 2 94z" />
<glyph unicode="V" horiz-adv-x="1114" d="M104 230q2 134 17 321.5t26.5 303.5t34.5 319q2 16 35 25q28 8 27 -3q-18 -165 -27.5 -259.5t-23 -250.5t-18.5 -260.5t-7 -246.5q-1 -39 -1 -77q1 -97 5 -177q6 -112 21 -238t40 -240q223 469 528.5 909.5t677.5 816.5q13 13 44 17q15 1 14 -4q0 -2 -3 -6 q-815 -878 -1243 -1817q-3 -8 -19 -16.5t-29.5 -10t-17.5 6.5q-34 137 -54.5 283.5t-24.5 308.5q-3 118 -3 221q1 38 1 74z" />
<glyph unicode="W" horiz-adv-x="2076" d="M104 -317q-1 29 -1 58q0 319 158 738q105 275 202 420q27 42 69 69q30 20 59 20q11 0 21 -3q18 -5 30.5 -16.5t19 -31t10 -36t2.5 -45t-2 -43t-4 -43.5t-4 -35q-20 -196 -84 -411q-4 -14 -36 -22q-26 -5 -24 7q65 219 84 419q1 6 2.5 22.5t2 24l1.5 22.5t1 24v21.5 t-2 23.5t-4 21q-1 2 -3 11.5t-3.5 15.5t-5 14t-8 12.5t-9.5 5.5q-11 1 -21.5 -4t-18 -12t-16.5 -20t-13.5 -21t-12 -22.5t-8.5 -16.5q-210 -381 -284 -773q-9 -47 -13.5 -72.5t-13 -79t-11 -87t-4.5 -84.5q-1 -15 0 -28q0 -33 3 -57q5 -34 14.5 -74t27 -66.5t44.5 -48.5 t63 -32q19 -5 38 -6q24 0 48 9q44 15 78 45t67.5 74.5t55.5 82.5t42 79q8 17 38 89q19 117 76 308q4 14 39 23q25 6 24 -4q-18 -172 -79 -329q-11 -75 -11 -140q0 -192 97 -297q56 -60 130 -72q21 -3 42 -3l106 21q74 29 151 84.5t141.5 122.5t116.5 140q225 314 331 689 q74 260 74 487q0 112 -18 216q-31 180 -123 262q-44 39 -104 53q-24 6 -50 5q-37 1 -77 -11q-68 -20 -126 -74q-14 -13 -46 -16q-12 -1 -12 3q-1 2 3 6q67 64 148 97q74 30 148 30h13q91 -4 154 -56t98 -136q48 -114 57 -264q3 -45 2 -89q0 -103 -14 -202q-21 -142 -64 -295 q-70 -245 -192.5 -476.5t-296.5 -402.5q-95 -94 -209 -155q-114 -60 -228 -72q-16 -2 -31 -1q-94 0 -165 60q-120 104 -120 319v11q-92 -152 -219 -218q-75 -37 -133 -37q-8 0 -14 1q-62 5 -104.5 48t-64.5 101.5t-25 124.5z" />
<glyph unicode="X" horiz-adv-x="1679" d="M103 -674q0 2 3 6q298 350 797 897q-8 15 -23 43.5t-23 42.5q-223 424 -356 826q-22 25 -22 67q0 13 31.5 23.5t36.5 -1.5q8 -24 26 -72q1 -1 4 -3.5t4 -3.5q3 -3 -2 -9q174 -473 381 -850q502 553 787 842q12 12 44 16q14 2 14 -4q0 -2 -3 -5q-130 -142 -405.5 -437.5 t-415.5 -449.5q210 -375 475 -694q8 -10 -22 -22q-33 -13 -43 -5q-135 129 -245.5 290t-221.5 367q-114 -126 -238 -265.5t-281.5 -318t-235.5 -266.5q-12 -14 -47 -18q-19 -3 -19 4z" />
<glyph unicode="Y" horiz-adv-x="1128" d="M102 295q-1 20 -1 39q0 38 5 72q18 285 112 770q3 16 36 24q23 7 22 -3q-74 -420 -94 -607q-18 -169 -18 -268v-10q2 -144 68 -176q18 -8 38 -8.5t41 7.5t41 19t43 30t41 35t40.5 40t36 39t33.5 37.5t27 30.5q122 136 206 243q198 249 366 538q8 15 42 23q22 6 21 -4 q0 -2 -1 -3q-293 -781 -711 -1848q-6 -14 -38 -22q-23 -5 -23 5q1 1 1 2q87 243 190 512t236.5 608t199.5 511q-141 -213 -308 -413q-164 -196 -273 -299q-104 -97 -197 -120q-28 -7 -52 -7q-35 0 -61 16q-43 25 -54 76t-15 111z" />
<glyph unicode="Z" horiz-adv-x="1589" d="M103.5 -567q3.5 18 8.5 35t19 40.5t24 40.5t28 42l27 37.5t25.5 34t19.5 25.5q136 183 308 358t404 386q250 227 770 659q-336 -26 -561 -26q-97 0 -174 5q-71 4 -162 16q-8 1 -35 4t-42.5 5t-35.5 8.5t-31 15.5q-26 26 -8 52t59 39q28 9 29 -3q2 -11 -24 -20 q-1 -1 -2 -1q-20 -6 -1.5 -24.5t30.5 -23.5q11 -4 59 -12q73 -12 149 -18q116 -10 247 -10q200 0 565 29q11 1 15 -3t-6 -14q-485 -403 -677 -573q-404 -358 -678 -670q-197 -222 -264 -369q-2 -3 -6.5 -13t-6 -13t-4.5 -11.5t-3 -11.5t-1 -9.5t1.5 -10t5.5 -8t9 -7.5t14 -6 q13 -4 29.5 -4.5t42.5 0.5t33 0q109 2 211 16q101 14 206 39t226 64.5t200.5 67.5t218.5 80q27 10 30 -1q2 -11 -21 -21l-6 -3q-270 -103 -478 -167.5t-407 -92.5q-110 -16 -210 -17q-5 0 -36 -1.5t-45.5 -1t-36.5 4t-34 11.5t-16.5 20.5t-1 30.5z" />
<glyph unicode="\" horiz-adv-x="655" d="M102 1372q-1 8 14.5 17t30 11t18.5 -5q85 -510 172 -965q62 -320 95 -479q5 -22 21.5 -110.5t25 -127t29 -102.5t44.5 -111q4 -7 -10 -16.5t-28.5 -12.5t-19.5 2q-26 43 -46.5 103t-29 96t-25 122.5t-20.5 105.5q-33 159 -95 479q-98 511 -176 993z" />
<glyph unicode="a" horiz-adv-x="569" d="M-3 51q3 11 11 24.5t15 24.5t21.5 28.5t20.5 25.5t22 26t18 20q57 65 116 114q138 116 308 183q25 10 28 0t-21 -21l-4 -2q-245 -97 -413 -316l-6 -8q-6 -8 -12 -15.5t-14.5 -19t-14 -21.5t-9.5 -19.5t-3.5 -16t6.5 -8.5q2 -1 14.5 10t30 28.5l33.5 33.5t30.5 31t15.5 16 q35 35 106 103.5t107 102.5q12 12 41 19q22 6 17 -8q-4 -11 -17 -48t-18.5 -54.5t-13.5 -47t-11.5 -53t-2.5 -46.5q1 -49 29 -49q23 0 64 33q86 70 135 129q11 13 41 17q14 2 14 -4q0 -2 -3 -6q-32 -43 -84.5 -95.5t-121.5 -93.5q-46 -28 -79 -28q-16 0 -29 7q-23 11 -31 39 q-4 14 -4 31q-1 16 3 36q8 40 17.5 72t25.5 77l-117 -114q-13 -13 -48 -49t-62 -60.5t-54 -42.5q-42 -28 -72 -28h-8q-28 3 -17 43z" />
<glyph unicode="&#xe4;" horiz-adv-x="569" d="M-3 51q3 11 11 24.5t15 24.5t21.5 28.5t20.5 25.5t22 26t18 20q57 65 116 114q138 116 308 183q25 10 28 0t-21 -21l-4 -2q-245 -97 -413 -316l-6 -8q-6 -8 -12 -15.5t-14.5 -19t-14 -21.5t-9.5 -19.5t-3.5 -16t6.5 -8.5q2 -1 14.5 10t30 28.5l33.5 33.5t30.5 31t15.5 16 q35 35 106 103.5t107 102.5q12 12 41 19q22 6 17 -8q-4 -11 -17 -48t-18.5 -54.5t-13.5 -47t-11.5 -53t-2.5 -46.5q1 -49 29 -49q23 0 64 33q86 70 135 129q11 13 41 17q14 2 14 -4q0 -2 -3 -6q-32 -43 -84.5 -95.5t-121.5 -93.5q-46 -28 -79 -28q-16 0 -29 7q-23 11 -31 39 q-4 14 -4 31q-1 16 3 36q8 40 17.5 72t25.5 77l-117 -114q-13 -13 -48 -49t-62 -60.5t-54 -42.5q-42 -28 -72 -28h-8q-28 3 -17 43z" />
<glyph unicode="&#xe3;" horiz-adv-x="569" d="M-3 51q3 11 11 24.5t15 24.5t21.5 28.5t20.5 25.5t22 26t18 20q57 65 116 114q138 116 308 183q25 10 28 0t-21 -21l-4 -2q-245 -97 -413 -316l-6 -8q-6 -8 -12 -15.5t-14.5 -19t-14 -21.5t-9.5 -19.5t-3.5 -16t6.5 -8.5q2 -1 14.5 10t30 28.5l33.5 33.5t30.5 31t15.5 16 q35 35 106 103.5t107 102.5q12 12 41 19q22 6 17 -8q-4 -11 -17 -48t-18.5 -54.5t-13.5 -47t-11.5 -53t-2.5 -46.5q1 -49 29 -49q23 0 64 33q86 70 135 129q11 13 41 17q14 2 14 -4q0 -2 -3 -6q-32 -43 -84.5 -95.5t-121.5 -93.5q-46 -28 -79 -28q-16 0 -29 7q-23 11 -31 39 q-4 14 -4 31q-1 16 3 36q8 40 17.5 72t25.5 77l-117 -114q-13 -13 -48 -49t-62 -60.5t-54 -42.5q-42 -28 -72 -28h-8q-28 3 -17 43z" />
<glyph unicode="&#xe2;" horiz-adv-x="569" d="M-3 51q3 11 11 24.5t15 24.5t21.5 28.5t20.5 25.5t22 26t18 20q57 65 116 114q138 116 308 183q25 10 28 0t-21 -21l-4 -2q-245 -97 -413 -316l-6 -8q-6 -8 -12 -15.5t-14.5 -19t-14 -21.5t-9.5 -19.5t-3.5 -16t6.5 -8.5q2 -1 14.5 10t30 28.5l33.5 33.5t30.5 31t15.5 16 q35 35 106 103.5t107 102.5q12 12 41 19q22 6 17 -8q-4 -11 -17 -48t-18.5 -54.5t-13.5 -47t-11.5 -53t-2.5 -46.5q1 -49 29 -49q23 0 64 33q86 70 135 129q11 13 41 17q14 2 14 -4q0 -2 -3 -6q-32 -43 -84.5 -95.5t-121.5 -93.5q-46 -28 -79 -28q-16 0 -29 7q-23 11 -31 39 q-4 14 -4 31q-1 16 3 36q8 40 17.5 72t25.5 77l-117 -114q-13 -13 -48 -49t-62 -60.5t-54 -42.5q-42 -28 -72 -28h-8q-28 3 -17 43z" />
<glyph unicode="&#xe1;" horiz-adv-x="569" d="M-3 51q3 11 11 24.5t15 24.5t21.5 28.5t20.5 25.5t22 26t18 20q57 65 116 114q138 116 308 183q25 10 28 0t-21 -21l-4 -2q-245 -97 -413 -316l-6 -8q-6 -8 -12 -15.5t-14.5 -19t-14 -21.5t-9.5 -19.5t-3.5 -16t6.5 -8.5q2 -1 14.5 10t30 28.5l33.5 33.5t30.5 31t15.5 16 q35 35 106 103.5t107 102.5q12 12 41 19q22 6 17 -8q-4 -11 -17 -48t-18.5 -54.5t-13.5 -47t-11.5 -53t-2.5 -46.5q1 -49 29 -49q23 0 64 33q86 70 135 129q11 13 41 17q14 2 14 -4q0 -2 -3 -6q-32 -43 -84.5 -95.5t-121.5 -93.5q-46 -28 -79 -28q-16 0 -29 7q-23 11 -31 39 q-4 14 -4 31q-1 16 3 36q8 40 17.5 72t25.5 77l-117 -114q-13 -13 -48 -49t-62 -60.5t-54 -42.5q-42 -28 -72 -28h-8q-28 3 -17 43z" />
<glyph unicode="&#xe0;" horiz-adv-x="569" d="M-3 51q3 11 11 24.5t15 24.5t21.5 28.5t20.5 25.5t22 26t18 20q57 65 116 114q138 116 308 183q25 10 28 0t-21 -21l-4 -2q-245 -97 -413 -316l-6 -8q-6 -8 -12 -15.5t-14.5 -19t-14 -21.5t-9.5 -19.5t-3.5 -16t6.5 -8.5q2 -1 14.5 10t30 28.5l33.5 33.5t30.5 31t15.5 16 q35 35 106 103.5t107 102.5q12 12 41 19q22 6 17 -8q-4 -11 -17 -48t-18.5 -54.5t-13.5 -47t-11.5 -53t-2.5 -46.5q1 -49 29 -49q23 0 64 33q86 70 135 129q11 13 41 17q14 2 14 -4q0 -2 -3 -6q-32 -43 -84.5 -95.5t-121.5 -93.5q-46 -28 -79 -28q-16 0 -29 7q-23 11 -31 39 q-4 14 -4 31q-1 16 3 36q8 40 17.5 72t25.5 77l-117 -114q-13 -13 -48 -49t-62 -60.5t-54 -42.5q-42 -28 -72 -28h-8q-28 3 -17 43z" />
<glyph unicode="b" horiz-adv-x="473" d="M-80 -176q1 1 1 2q37 116 72 231q0 9 8 27q48 158 99 335.5t112.5 396t94.5 335.5q3 13 33 20q23 5 22 -6q-78 -359 -216 -809q13 22 29 47q31 48 75 81q46 32 90 34h4q41 0 69 -40q19 -30 19 -66q0 -45 -29 -99q-52 -98 -140 -167q-22 -17 -90 -52.5t-116 -49.5 q-31 -78 -74 -202q-5 -15 -39 -23q-24 -6 -24 5zM71 78q25 1 85.5 36t78.5 50q66 57 102 129q28 57 28 100q0 10 -2 20q-7 44 -42 56q-7 2 -15 2q-28 0 -57 -36q-30 -42 -61 -100.5t-46 -91.5t-46 -105q-9 -20 -25 -60z" />
<glyph unicode="c" horiz-adv-x="466" d="M13 80q-7 23 -7 50q0 56 32 126q48 104 124 181q28 29 61.5 49.5t69.5 26.5q7 1 13 2q27 0 44 -23q5 -6 -7.5 -14.5t-27 -12t-20.5 0.5q-15 14 -33 11t-38.5 -23t-39.5 -44t-36.5 -53t-28.5 -49.5t-16 -32.5q-33 -76 -33 -130q0 -24 6 -43q9 -26 25 -38t38.5 -9t47.5 12 t54.5 29t55.5 39.5t56 46.5t50 45.5t43.5 41t31.5 29.5q13 12 42 16q12 1 12 -3q1 -2 -3 -6q-28 -29 -66 -64.5t-93 -82t-109 -79.5t-105 -53q-31 -13 -58 -13q-18 0 -32 5q-38 13 -53 62z" />
<glyph unicode="d" horiz-adv-x="614" d="M17 38q-3 12 -3 26q0 46 32 102q42 74 102 132q38 37 86.5 72.5t109.5 75.5t93 64q14 10 36 10q4 6 11 20l10 20q133 451 203 641q5 13 38 23q25 7 24 -4q-400 -1317 -423 -1389q-4 -14 -35 -22q-27 -5 -25 7q36 143 157 542q-81 -127 -167 -220q-18 -20 -36.5 -38 t-46.5 -43.5t-52.5 -40t-48.5 -22.5t-41 3t-24 41zM76 74q1 -8 3 -14.5t5.5 -13.5t5.5 -12t12 -8q13 8 27.5 21t33 33t20.5 22q84 86 155 191q64 95 125 208q-27 -21 -109 -77.5t-123 -91.5q-64 -54 -112 -127q-43 -66 -44 -120q1 -6 1 -11z" />
<glyph unicode="e" horiz-adv-x="507" d="M98 278q31 44 58 71q87 87 171 110q23 9 57.5 4t35.5 -30q1 -11 -5.5 -22.5t-20 -23.5t-23.5 -19.5t-27 -19t-20 -13.5q-73 -50 -208 -110q-40 -76 -40 -119q0 -9 2 -16q9 -36 52 -35q48 0 139 43q10 5 15 7q70 33 265 139q19 11 42 7q17 -2 -7 -17q-96 -58 -256 -136 l-26 -13t-28.5 -14t-27 -12t-29.5 -13t-27 -10.5t-30 -10t-27 -7t-28 -4.5q-12 -1 -22 -1q-71 0 -71 63q0 78 86 202zM134 258q138 63 191 112q10 9 15.5 14.5t10.5 13.5t4 14.5t-8 12.5q-6 5 -15 5q-28 0 -91 -47q-59 -45 -107 -125z" />
<glyph unicode="&#xea;" horiz-adv-x="507" d="M98 278q31 44 58 71q87 87 171 110q23 9 57.5 4t35.5 -30q1 -11 -5.5 -22.5t-20 -23.5t-23.5 -19.5t-27 -19t-20 -13.5q-73 -50 -208 -110q-40 -76 -40 -119q0 -9 2 -16q9 -36 52 -35q48 0 139 43q10 5 15 7q70 33 265 139q19 11 42 7q17 -2 -7 -17q-96 -58 -256 -136 l-26 -13t-28.5 -14t-27 -12t-29.5 -13t-27 -10.5t-30 -10t-27 -7t-28 -4.5q-12 -1 -22 -1q-71 0 -71 63q0 78 86 202zM134 258q138 63 191 112q10 9 15.5 14.5t10.5 13.5t4 14.5t-8 12.5q-6 5 -15 5q-28 0 -91 -47q-59 -45 -107 -125z" />
<glyph unicode="&#xe9;" horiz-adv-x="507" d="M98 278q31 44 58 71q87 87 171 110q23 9 57.5 4t35.5 -30q1 -11 -5.5 -22.5t-20 -23.5t-23.5 -19.5t-27 -19t-20 -13.5q-73 -50 -208 -110q-40 -76 -40 -119q0 -9 2 -16q9 -36 52 -35q48 0 139 43q10 5 15 7q70 33 265 139q19 11 42 7q17 -2 -7 -17q-96 -58 -256 -136 l-26 -13t-28.5 -14t-27 -12t-29.5 -13t-27 -10.5t-30 -10t-27 -7t-28 -4.5q-12 -1 -22 -1q-71 0 -71 63q0 78 86 202zM134 258q138 63 191 112q10 9 15.5 14.5t10.5 13.5t4 14.5t-8 12.5q-6 5 -15 5q-28 0 -91 -47q-59 -45 -107 -125z" />
<glyph unicode="&#xe8;" horiz-adv-x="507" d="M98 278q31 44 58 71q87 87 171 110q23 9 57.5 4t35.5 -30q1 -11 -5.5 -22.5t-20 -23.5t-23.5 -19.5t-27 -19t-20 -13.5q-73 -50 -208 -110q-40 -76 -40 -119q0 -9 2 -16q9 -36 52 -35q48 0 139 43q10 5 15 7q70 33 265 139q19 11 42 7q17 -2 -7 -17q-96 -58 -256 -136 l-26 -13t-28.5 -14t-27 -12t-29.5 -13t-27 -10.5t-30 -10t-27 -7t-28 -4.5q-12 -1 -22 -1q-71 0 -71 63q0 78 86 202zM134 258q138 63 191 112q10 9 15.5 14.5t10.5 13.5t4 14.5t-8 12.5q-6 5 -15 5q-28 0 -91 -47q-59 -45 -107 -125z" />
<glyph unicode="f" horiz-adv-x="491" d="M-76 -508q88 423 157 667q-15 -1 -29 -1q-35 0 -60 4q-7 3 -2.5 9.5t11.5 11.5q51 29 99 43q87 291 207 541q2 5 21 47t33 71t39.5 72t48 68.5t52.5 42t58 9.5q26 -6 28 -41v-11q0 -29 -9 -55q-10 -32 -24 -63q-15 -32 -38 -69t-40 -61t-49.5 -68.5t-44.5 -61.5 q-9 -13 -39 -17q-15 -2 -15 4q1 3 3 6q8 11 33 45t36.5 50.5t30.5 44.5t33 52t26 48q39 76 39 111q0 10 -3 17q-6 11 -14 11q-23 0 -67 -83q-115 -207 -206 -455q-41 -113 -80 -245h9q47 0 64 -31q44 9 155 39t170 39q16 2 15 -3q-2 -10 -29 -23q-9 -4 -14 -5 q-56 -9 -162 -36.5t-128 -32.5q3 -20 -3 -50q-8 -40 -27 -87.5t-46.5 -106.5t-38.5 -87q-92 -230 -139 -345q-6 -14 -37 -22q-25 -6 -24 7zM46 -208q8 20 24 59.5t24 59.5q2 6 17 41t23 57.5t19 55.5t15.5 59t2.5 45q-22 -4 -33 -5q-40 -142 -92 -372zM70 191h20q0 1 1 5 t2 5q-7 -2 -23 -10zM146 193q11 0 16 1q-6 8 -13 11z" />
<glyph unicode="g" horiz-adv-x="675" d="M6 -642q-10 26 -10 57q0 51 25 116q60 154 261 376q62 215 119 407q-70 -112 -153 -196q-25 -25 -56.5 -49t-67.5 -44q-33 -18 -61 -18h-6q-31 2 -45 33q-2 1 -2 4h1q-1 2 1 6q6 32 28 72.5t39.5 65.5t50.5 68q93 124 183 193q50 38 82 38q12 0 22 -5q3 -1 11 -9 q20 40 41 79q3 6 23 16h1q1 1 2 1q40 16 37 1q-1 -1 -1 -2q-1 -3 -3.5 -8.5t-3.5 -8.5l-159 -555q108 113 309 301q14 13 46 16q14 2 14 -3q0 -2 -4 -6q-43 -44 -123.5 -122.5t-145 -143.5t-119.5 -125q-16 -55 -68 -233q-55 -189 -88 -265q-2 -4 -9 -21t-10 -24.5 t-11 -22.5t-15 -23t-17.5 -17t-22.5 -14q-13 -5 -24 -5q-43 0 -71 70zM66 -530q-3 -18 -3 -38t3 -41q7 -40 30 -58q20 37 62 158q17 48 32.5 99t35.5 122t28 99q-126 -153 -170 -270q-12 -31 -18 -71zM74 67q8 -21 26 -21q31 0 92 69q94 106 140 180q6 10 30 53 q-30 -8 -28 1l3 5q37 45 37 66q0 11 -10 16l-13.5 1.5t-13 -6t-12.5 -10.5t-12 -13t-12 -13q-44 -44 -79 -86q-134 -162 -148 -242z" />
<glyph unicode="h" horiz-adv-x="559" d="M-88 -351q42 245 177 700q40 137 121 410t121 410q4 15 38 23q27 6 25 -7q-39 -133 -117 -398.5t-117 -397.5q-42 -142 -62 -213q115 233 236 299q31 17 52 16q46 0 46 -79q0 -38 -10 -93q-2 -12 -8 -39q-4 -20 -15 -65t-15 -69q-8 -45 -8 -53q-1 -20 -3 -28q4 11 18 20 q18 12 38.5 28t34.5 27t40.5 35t34 31t38.5 36t32 30q14 13 45 16q14 2 14 -3q0 -2 -4 -6q-35 -35 -107 -94.5t-83 -69.5q-7 -6 -21 -19t-22 -20t-20.5 -16t-25 -14t-25.5 -7q-32 -4 -41 10t-5 47q5 38 25 119.5t24 123.5q5 43 5 70q0 44 -13 47h-1q-18 0 -103 -116 q-61 -84 -127 -226q-84 -179 -148 -445q-3 -14 -39 -24q-27 -7 -25 4z" />
<glyph unicode="i" horiz-adv-x="337" d="M-8 66q-1 14 -1 27q0 52 16 95q1 3 1 5t1 5t1 5q18 89 105 275q7 15 40 22q23 5 22 -4q0 -1 -1 -2q-33 -71 -47 -104t-37 -95q-23 -61 -31 -111q-5 -32 -5 -64q0 -16 1 -31q5 -53 34 -53q22 0 57 28q16 13 47 42l8 8q57 52 141 140q12 12 43 17q15 2 14 -4q0 -2 -3 -6 q-74 -87 -206 -201q-77 -65 -133 -65h-6q-56 3 -61 71zM150 639q1 12 31 24q9 4 23 4q11 0 11 -5q-2 -25 12 -39q9 -9 -21 -23q-31 -14 -40 -6q-18 18 -16 45z" />
<glyph unicode="&#xee;" horiz-adv-x="337" d="M-8 66q-1 14 -1 27q0 52 16 95q1 3 1 5t1 5t1 5q18 89 105 275q7 15 40 22q23 5 22 -4q0 -1 -1 -2q-33 -71 -47 -104t-37 -95q-23 -61 -31 -111q-5 -32 -5 -64q0 -16 1 -31q5 -53 34 -53q22 0 57 28q16 13 47 42l8 8q57 52 141 140q12 12 43 17q15 2 14 -4q0 -2 -3 -6 q-74 -87 -206 -201q-77 -65 -133 -65h-6q-56 3 -61 71zM150 639q1 12 31 24q9 4 23 4q11 0 11 -5q-2 -25 12 -39q9 -9 -21 -23q-31 -14 -40 -6q-18 18 -16 45z" />
<glyph unicode="&#xed;" horiz-adv-x="337" d="M-8 66q-1 14 -1 27q0 52 16 95q1 3 1 5t1 5t1 5q18 89 105 275q7 15 40 22q23 5 22 -4q0 -1 -1 -2q-33 -71 -47 -104t-37 -95q-23 -61 -31 -111q-5 -32 -5 -64q0 -16 1 -31q5 -53 34 -53q22 0 57 28q16 13 47 42l8 8q57 52 141 140q12 12 43 17q15 2 14 -4q0 -2 -3 -6 q-74 -87 -206 -201q-77 -65 -133 -65h-6q-56 3 -61 71zM150 639q1 12 31 24q9 4 23 4q11 0 11 -5q-2 -25 12 -39q9 -9 -21 -23q-31 -14 -40 -6q-18 18 -16 45z" />
<glyph unicode="&#xec;" horiz-adv-x="337" d="M-8 66q-1 14 -1 27q0 52 16 95q1 3 1 5t1 5t1 5q18 89 105 275q7 15 40 22q23 5 22 -4q0 -1 -1 -2q-33 -71 -47 -104t-37 -95q-23 -61 -31 -111q-5 -32 -5 -64q0 -16 1 -31q5 -53 34 -53q22 0 57 28q16 13 47 42l8 8q57 52 141 140q12 12 43 17q15 2 14 -4q0 -2 -3 -6 q-74 -87 -206 -201q-77 -65 -133 -65h-6q-56 3 -61 71zM150 639q1 12 31 24q9 4 23 4q11 0 11 -5q-2 -25 12 -39q9 -9 -21 -23q-31 -14 -40 -6q-18 18 -16 45z" />
<glyph unicode="j" horiz-adv-x="262" d="M-338 -673q-10 26 -10 57q0 50 25 115q61 156 261 377q155 529 218 739q4 14 35 21q23 4 21 -7q-32 -111 -95 -332t-95 -332q126 132 308 301q14 13 46 16q14 2 14 -3q0 -2 -4 -6q-43 -44 -123.5 -122.5t-145 -143.5t-119.5 -125q-11 -38 -33 -114.5t-33 -114.5 q-51 -177 -90 -269q-1 -2 -10 -24.5t-13.5 -31t-14 -25t-21 -26t-25.5 -15.5q-13 -5 -25 -5q-43 0 -71 70zM-277 -561q-3 -19 -3 -38.5t3 -40.5q6 -40 29 -58q21 38 62 157q17 48 32.5 99.5t35 122t28.5 99.5q-123 -150 -169 -271q-12 -32 -18 -70zM178 735q1 12 31 24 q9 4 23 4q10 0 10 -5q-2 -24 13 -39q9 -9 -21 -23q-32 -15 -41 -6q-17 17 -15 45z" />
<glyph unicode="k" horiz-adv-x="464" d="M6 -41q6 41 18.5 85.5t34 109.5t27.5 86q43 144 101 331q156 514 191 634q4 14 36 22q25 5 23 -7q-59 -207 -185 -621q-7 -25 -22 -74t-22 -73q29 35 56 65q1 1 16 18t19.5 22t20.5 21.5t24 22.5t23 18.5t25.5 17t23.5 9.5t24.5 4.5t22.5 -5.5q14 -7 -15 -22 q-24 -12 -34 -8q-1 1 -3 1q-19 0 -85 -78q-70 -84 -96 -125q-79 -118 -79 -180q0 -19 8 -33q9 -16 28.5 -19.5t45.5 4t56 21t63.5 34t63 40t60 41.5t49 36.5t34.5 27.5q15 12 42 13q20 0 3 -14q-130 -111 -308 -195q-24 -12 -35.5 -17t-36.5 -15t-40.5 -13.5t-33.5 -3.5 t-31 6q-33 -117 -55 -170q-6 -12 -38 -21q-21 -5 -20 4z" />
<glyph unicode="l" horiz-adv-x="516" d="M-4 -144.5q-1 15.5 3.5 44.5t7 46t9.5 47t11 47t11.5 46t11.5 44q42 168 110 371q28 84 64.5 187t58.5 163t72 194.5t63 170.5q5 15 38 22q22 5 22 -5q-1 -1 -1 -2q-20 -56 -105 -284t-119.5 -327t-86 -271.5t-80.5 -312.5q-2 -9 -7.5 -34t-9 -41t-7.5 -41.5t-5 -44 t0.5 -38.5t8 -35t17.5 -24q8 -7 20 -7q51 0 169 129l10 10q184 194 299 392q9 15 42 22q19 4 18 -5q0 -1 -1 -2q-115 -227 -358 -456q-37 -36 -80 -65.5t-89 -49.5q-26 -12 -48 -12q-17 0 -31 6q-32 16 -37 73q0 27 -1 42.5z" />
<glyph unicode="m" horiz-adv-x="796" d="M-8 -88q35 119 112.5 337.5t96.5 274.5q4 14 35 21q23 5 21 -6q-32 -104 -104 -312q19 30 22 34q6 9 34.5 52.5t45.5 67t46 52.5t54 41q37 17 54.5 6.5t16.5 -37t-3 -55.5q-7 -63 -25 -143q84 117 157 117q8 0 16 -1q26 -4 30 -33t-5.5 -63t-16.5 -71.5t-1 -53.5 q10 -25 36.5 -25.5t60 17.5t61 37t50.5 39q13 11 42 13q13 0 13 -4q0 -2 -4 -6q-63 -58 -149 -103q-62 -33 -108 -33q-17 0 -32 5q-14 4 -23 12.5t-12 21.5t-4.5 25.5t1.5 31t5 30.5t6.5 31.5t6.5 27.5q11 53 -16 39q-32 -18 -92 -103q-6 -8 -9 -13q-29 -47 -73 -145 q-7 -15 -41 -23q-23 -6 -23 5q1 1 1 2q60 191 75 276q1 5 6 29.5t7 35t4 33.5t-3 26q-8 22 -29 -10q-1 -1 -1.5 -2t-2 -3t-2 -3t-2 -3t-2.5 -3t-2 -3t-2 -3q-182 -236 -267 -465q-6 -15 -39 -23q-25 -5 -23 8z" />
<glyph unicode="n" horiz-adv-x="548" d="M2 12q1 1 1 2q9 27 57 171.5t74 222.5q5 15 38 23q26 5 24 -7q-14 -52 -20 -78q-1 -4 -9 -10l-14.5 -43.5l-14.5 -43.5q25 35 48 62l14 17q14 17 19.5 23.5t20 22t24 23t22.5 17t25 12.5t23 2q30 -4 36 -45q3 -21 3 -48q0 -25 -3 -55q-5 -53 -5 -69q0 -20 8 -50 q5 -18 17 -33t34 -10.5t54 28.5q14 11 29.5 26t25 25.5t27.5 31t24 27.5q11 13 42 18q17 3 16 -4q0 -3 -3 -6q-52 -71 -120.5 -129t-133.5 -63h-9q-34 0 -50 21q-18 24 -25 66q-3 17 -3 70q0 26 1 61q0 4 2 26t1 39.5t-6 27.5q-11 -10 -24 -24.5t-23 -27t-23.5 -31 t-20.5 -29t-18.5 -28t-13.5 -21.5q-57 -85 -107 -192q-7 -15 -41 -23q-23 -6 -23 5z" />
<glyph unicode="o" horiz-adv-x="415" d="M-4 124q2 50 19 100q24 59 75.5 121.5t110.5 100.5q13 18 46 24q1 0 3.5 1t3.5 2q30 11 33 -1q1 -7 -11 -16q31 -43 45 -94q10 -35 9 -74q0 -18 -2 -38q-6 -60 -38 -117q-34 -61 -86 -103q-46 -38 -95 -39q-6 0 -12 1q-49 4 -76 43q-25 36 -25 82v7zM72 173.5 q-2 -31.5 1.5 -61.5t22 -48t48.5 -13q54 8 98 77t46 120v6q0 42 -14 94q-14 56 -35 95q-42 -36 -93 -106.5t-63 -106.5q-9 -25 -11 -56.5z" />
<glyph unicode="&#xf6;" horiz-adv-x="415" d="M-4 124q2 50 19 100q24 59 75.5 121.5t110.5 100.5q13 18 46 24q1 0 3.5 1t3.5 2q30 11 33 -1q1 -7 -11 -16q31 -43 45 -94q10 -35 9 -74q0 -18 -2 -38q-6 -60 -38 -117q-34 -61 -86 -103q-46 -38 -95 -39q-6 0 -12 1q-49 4 -76 43q-25 36 -25 82v7zM72 173.5 q-2 -31.5 1.5 -61.5t22 -48t48.5 -13q54 8 98 77t46 120v6q0 42 -14 94q-14 56 -35 95q-42 -36 -93 -106.5t-63 -106.5q-9 -25 -11 -56.5z" />
<glyph unicode="&#xf5;" horiz-adv-x="415" d="M-4 124q2 50 19 100q24 59 75.5 121.5t110.5 100.5q13 18 46 24q1 0 3.5 1t3.5 2q30 11 33 -1q1 -7 -11 -16q31 -43 45 -94q10 -35 9 -74q0 -18 -2 -38q-6 -60 -38 -117q-34 -61 -86 -103q-46 -38 -95 -39q-6 0 -12 1q-49 4 -76 43q-25 36 -25 82v7zM72 173.5 q-2 -31.5 1.5 -61.5t22 -48t48.5 -13q54 8 98 77t46 120v6q0 42 -14 94q-14 56 -35 95q-42 -36 -93 -106.5t-63 -106.5q-9 -25 -11 -56.5z" />
<glyph unicode="&#xf4;" horiz-adv-x="415" d="M-4 124q2 50 19 100q24 59 75.5 121.5t110.5 100.5q13 18 46 24q1 0 3.5 1t3.5 2q30 11 33 -1q1 -7 -11 -16q31 -43 45 -94q10 -35 9 -74q0 -18 -2 -38q-6 -60 -38 -117q-34 -61 -86 -103q-46 -38 -95 -39q-6 0 -12 1q-49 4 -76 43q-25 36 -25 82v7zM72 173.5 q-2 -31.5 1.5 -61.5t22 -48t48.5 -13q54 8 98 77t46 120v6q0 42 -14 94q-14 56 -35 95q-42 -36 -93 -106.5t-63 -106.5q-9 -25 -11 -56.5z" />
<glyph unicode="&#xf3;" horiz-adv-x="415" d="M-4 124q2 50 19 100q24 59 75.5 121.5t110.5 100.5q13 18 46 24q1 0 3.5 1t3.5 2q30 11 33 -1q1 -7 -11 -16q31 -43 45 -94q10 -35 9 -74q0 -18 -2 -38q-6 -60 -38 -117q-34 -61 -86 -103q-46 -38 -95 -39q-6 0 -12 1q-49 4 -76 43q-25 36 -25 82v7zM72 173.5 q-2 -31.5 1.5 -61.5t22 -48t48.5 -13q54 8 98 77t46 120v6q0 42 -14 94q-14 56 -35 95q-42 -36 -93 -106.5t-63 -106.5q-9 -25 -11 -56.5z" />
<glyph unicode="&#xf2;" horiz-adv-x="415" d="M-4 124q2 50 19 100q24 59 75.5 121.5t110.5 100.5q13 18 46 24q1 0 3.5 1t3.5 2q30 11 33 -1q1 -7 -11 -16q31 -43 45 -94q10 -35 9 -74q0 -18 -2 -38q-6 -60 -38 -117q-34 -61 -86 -103q-46 -38 -95 -39q-6 0 -12 1q-49 4 -76 43q-25 36 -25 82v7zM72 173.5 q-2 -31.5 1.5 -61.5t22 -48t48.5 -13q54 8 98 77t46 120v6q0 42 -14 94q-14 56 -35 95q-42 -36 -93 -106.5t-63 -106.5q-9 -25 -11 -56.5z" />
<glyph unicode="p" horiz-adv-x="544" d="M-219 -753q14 62 30 124.5t37 136.5t34.5 122t41 136.5t37.5 121.5t42.5 136t39.5 125q3 11 9 32.5t10 32.5q19 70 27 91q52 171 91 289q4 12 29 17q17 2 16 -6q-21 -81 -45 -162q2 1 5.5 4t5.5 4q56 39 119 45q11 2 22 2q48 0 83 -24q59 -38 59 -113q0 -72 -45 -142 q88 23 186 42q18 4 14 -5q-6 -13 -29 -23l-6 -2q-166 -38 -185 -43q-48 -68 -115.5 -116t-136.5 -55q-38 -4 -49 17.5t18 54.5q32 35 136 76q49 19 104 36q46 72 46 131q0 14 -2 27q-7 42 -40 74q-32 31 -74 31h-3q-23 0 -42 -7t-33.5 -23t-24 -28t-20 -36.5t-14 -34 t-11.5 -35.5q-71 -221 -97 -308q-26 -84 -98 -339t-119 -393q-4 -13 -34 -20q-20 -3 -19 7zM169 75q-5 -16 9 -24q5 -3 11 -3q23 0 69 38q57 49 84 83q-50 -16 -95 -36q-69 -29 -78 -58z" />
<glyph unicode="q" horiz-adv-x="473" d="M2.5 -654q0.5 29 3.5 60q18 122 93 362q11 35 26 79q-23 13 -52 13q-19 0 -40 -6q-6 -3 -19.5 -0.5t-3.5 12.5q87 83 179 158q31 80 53 130q0 2 2 5t2 4q-96 -71 -182 -91q-19 -4 -34 -4q-40 0 -40 35q0 23 17 61q72 163 278 309q69 48 107 48q8 0 14 -2q18 -5 23 -15.5 t-1 -25.5t-14.5 -28.5t-20 -31t-16.5 -26.5q-8 -15 -40 -22q-20 -4 -19 5q0 1 1 2q3 7 15 26q27 43 27 59q0 5 -3 7q-8 7 -40 -6q-10 -4 -22 -12t-21 -15t-24 -21.5t-20.5 -20t-21 -21.5t-16.5 -17q-80 -82 -119 -164q-8 -17 -12.5 -26.5t-8.5 -22.5t-2.5 -19.5t7 -11.5 t19.5 -4t35 8q72 24 160 108q21 44 48.5 72.5t70.5 38.5q8 3 19 1t3 -12q-37 -47 -90 -97q-18 -40 -53 -139q122 94 273 196q15 11 41 9q19 -1 1 -14q-216 -152 -336 -248q-33 -88 -57 -158q59 -37 69 -134q2 -20 2 -41q0 -112 -55 -229q-59 -125 -126 -157q-40 -19 -60 -7 t-19.5 41zM68 -613q-4 -48 8 -43q39 15 96 182q24 76 24 147q0 26 -3 52q-5 46 -24 78q0 -1 -0.5 -2t-0.5 -2q-33 -107 -68 -242q-25 -91 -32 -170zM90 -107q23 3 50 -1q4 11 12.5 34t12.5 34q-50 -44 -75 -67z" />
<glyph unicode="r" horiz-adv-x="579" d="M-8 -7q99 355 193 552q7 15 38 21q21 4 20 -5q0 -1 -1 -2q-78 -178 -146 -403q58 77 126 143q2 2 25.5 26.5t33.5 33t31 25.5t38 23.5t34 6.5q8 0 15.5 -2t13 -7t10 -9t8.5 -12.5t6.5 -13.5t5 -16t3.5 -15t3.5 -15.5t2.5 -13.5q1 -4 3.5 -18.5t3.5 -19.5t4.5 -16t7 -14 t9.5 -7t13.5 -1.5t18 8.5t23.5 17q19 17 50.5 53t40.5 45q13 13 44 17q15 1 14 -4q0 -2 -3 -6q-3 -3 -21.5 -24t-28 -31t-30 -32t-34.5 -33t-34.5 -27t-36 -21.5t-32 -9t-30.5 3.5t-25 22q-8 12 -12.5 28.5t-7.5 38.5t-6 32q-1 3 -12 40q-2 6 -3.5 10l-3 8t-3 5t-3 2.5 t-3.5 0t-4 -2t-5.5 -4t-6.5 -6t-8 -8t-10 -9.5q-171 -158 -267 -339q-7 -14 -39 -23q-25 -5 -23 8z" />
<glyph unicode="s" horiz-adv-x="448" d="M-164 -417q-24 3 6 20q25 15 49.5 30.5t59 38.5t63.5 46t59.5 50t51 54t34 54t13 53.5t-16.5 49.5q-15 21 -45.5 41.5t-56.5 34.5t-47 40t-23 59v6q-1 42 35 102q38 64 94 112q57 50 119 76q30 13 56 13q28 0 51 -15q5 -1 6 -4q1 -1 1 -2l-1 -1v-1q-1 -10 -8 -21.5 t-19.5 -22.5t-23 -19t-26.5 -18.5t-21 -14.5q-83 -60 -154 -100q-18 -9 -29 -12q-9 -24 -9 -45q0 -50 49 -89q13 -10 51 -32t59.5 -43t28.5 -52q2 -11 3 -22q0 -31 -18 -65q-24 -48 -64.5 -88t-96.5 -82.5t-99.5 -70.5t-85.5 -51q-20 -11 -45 -9zM82 269q54 33 91 59 q3 2 17.5 12t27 18.5t26.5 19.5t22.5 21t9.5 17q-10 7 -23 7q-19 1 -43 -15q-40 -26 -72 -63.5t-56 -75.5z" />
<glyph unicode="t" horiz-adv-x="243" d="M-228 694q2 10 30 22q9 3 14 4q4 0 13 1t13 1h5q65 5 200.5 18t205.5 19q82 177 152 307q8 15 40 21q18 2 17 -5q0 -1 -1 -2q-77 -152 -151 -316q124 9 233 8q191 0 337 -26q16 -3 -14 -20q-22 -12 -31 -11q-203 17 -376 17q-86 0 -165 -4q-66 -146 -117 -272 q-85 -209 -137 -373t-70 -319q-2 -15 -36 -26q-29 -9 -28 3q4 76 21 159.5t52 185t57 159t69 173.5q73 178 132 307q-75 -5 -225 -18t-225 -18q-16 -1 -15 5z" />
<glyph unicode="u" horiz-adv-x="477" d="M8 41.5q-1 24.5 5.5 56t13.5 57t17.5 58.5t13.5 45q12 46 38 138q2 6 7 20t8.5 25.5t3.5 18.5q0 14 33 24q28 9 28 -2q0 -12 -4.5 -30t-12.5 -40t-11 -31q-38 -131 -57 -219q-1 -5 -6 -24t-7 -28.5t-4.5 -28.5t1.5 -23q5 -18 18 -18q20 0 57 47q6 7 16 21q9 12 13 17 q78 96 204 314q8 14 39 23q25 5 23 -8q-63 -266 -156 -534q-5 -14 -36 -22q-24 -5 -22 7q13 56 31 118.5t42.5 141t36.5 118.5q-30 -46 -57.5 -85t-60 -81.5t-62 -71t-56.5 -48t-50 -18.5t-37 24q-9 14 -10 38.5z" />
<glyph unicode="&#xfb;" horiz-adv-x="477" d="M8 41.5q-1 24.5 5.5 56t13.5 57t17.5 58.5t13.5 45q12 46 38 138q2 6 7 20t8.5 25.5t3.5 18.5q0 14 33 24q28 9 28 -2q0 -12 -4.5 -30t-12.5 -40t-11 -31q-38 -131 -57 -219q-1 -5 -6 -24t-7 -28.5t-4.5 -28.5t1.5 -23q5 -18 18 -18q20 0 57 47q6 7 16 21q9 12 13 17 q78 96 204 314q8 14 39 23q25 5 23 -8q-63 -266 -156 -534q-5 -14 -36 -22q-24 -5 -22 7q13 56 31 118.5t42.5 141t36.5 118.5q-30 -46 -57.5 -85t-60 -81.5t-62 -71t-56.5 -48t-50 -18.5t-37 24q-9 14 -10 38.5z" />
<glyph unicode="&#xfa;" horiz-adv-x="477" d="M8 41.5q-1 24.5 5.5 56t13.5 57t17.5 58.5t13.5 45q12 46 38 138q2 6 7 20t8.5 25.5t3.5 18.5q0 14 33 24q28 9 28 -2q0 -12 -4.5 -30t-12.5 -40t-11 -31q-38 -131 -57 -219q-1 -5 -6 -24t-7 -28.5t-4.5 -28.5t1.5 -23q5 -18 18 -18q20 0 57 47q6 7 16 21q9 12 13 17 q78 96 204 314q8 14 39 23q25 5 23 -8q-63 -266 -156 -534q-5 -14 -36 -22q-24 -5 -22 7q13 56 31 118.5t42.5 141t36.5 118.5q-30 -46 -57.5 -85t-60 -81.5t-62 -71t-56.5 -48t-50 -18.5t-37 24q-9 14 -10 38.5z" />
<glyph unicode="&#xf9;" horiz-adv-x="477" d="M8 41.5q-1 24.5 5.5 56t13.5 57t17.5 58.5t13.5 45q12 46 38 138q2 6 7 20t8.5 25.5t3.5 18.5q0 14 33 24q28 9 28 -2q0 -12 -4.5 -30t-12.5 -40t-11 -31q-38 -131 -57 -219q-1 -5 -6 -24t-7 -28.5t-4.5 -28.5t1.5 -23q5 -18 18 -18q20 0 57 47q6 7 16 21q9 12 13 17 q78 96 204 314q8 14 39 23q25 5 23 -8q-63 -266 -156 -534q-5 -14 -36 -22q-24 -5 -22 7q13 56 31 118.5t42.5 141t36.5 118.5q-30 -46 -57.5 -85t-60 -81.5t-62 -71t-56.5 -48t-50 -18.5t-37 24q-9 14 -10 38.5z" />
<glyph unicode="v" horiz-adv-x="456" d="M-27 423q0 8 16.5 17.5t30.5 11t17 -5.5q0 -13 1.5 -56.5t2.5 -62t3 -56.5t4.5 -61t6 -55t9 -59.5t12.5 -53.5l18.5 18.5t18.5 19.5q25 27 76 82.5t76 82.5q36 40 108.5 118t108.5 117q13 14 46 18q15 2 14 -4q0 -3 -3 -6q-26 -29 -116.5 -128t-139.5 -153 q-51 -55 -155 -165q-3 -3 -14 -15t-16 -17t-14.5 -13t-18.5 -12.5t-19 -7.5q-23 -6 -26 3q-20 63 -31 145t-13 142.5t-3 155.5z" />
<glyph unicode="w" horiz-adv-x="589" d="M-57 -39q22 129 106 405q8 35 30 105q3 9 8 26.5t7 26.5q3 14 35 22q27 6 25 -7q-1 -4 -3.5 -11.5t-3.5 -11.5q-10 -36 -57.5 -196.5t-66.5 -246.5q80 100 189 208q11 11 41 20q20 5 18 -5q-12 -91 -12 -141v-14q2 -75 29 -75q13 0 33 18q30 28 61 128q17 55 17 118 q0 15 -1 31q-1 13 27 23t36 3q31 -25 65 -35q18 -6 38 -5q18 1 38 5q42 10 83 41q14 12 42 13q20 1 6 -12l-2 -2q-65 -54 -137 -72q-33 -8 -64 -7q-36 0 -68 11q-8 -98 -57 -187q-23 -43 -47 -72t-58 -42q-25 -12 -43 -8t-30 11t-19 26t-10 37t-3 43.5t1.5 45.5t4.5 43 q-121 -128 -197 -241q-8 -11 -39 -22q-24 -8 -22 3z" />
<glyph unicode="x" horiz-adv-x="616" d="M-54 -27q0 2 4 6q53 56 234 227q-3 22 -7.5 71.5t-10.5 86.5t-15 69q-2 7 12.5 15.5t28 11t18.5 -4.5q15 -50 30 -194q20 19 58 57q23 23 62 64t72.5 75t64.5 61q11 10 37 13q11 1 11 -4q0 -2 -3 -6q-27 -34 -59.5 -68t-80.5 -80t-65 -63q-90 -93 -91 -94q9 -55 21 -88 q23 -67 47 -79q11 -6 22.5 -7.5t24 4t20.5 8.5t22.5 15.5t18.5 16t19 19.5t16 17q63 65 181 201q11 12 40 16q13 2 13 -3q0 -2 -3 -6q-149 -190 -242 -265q-75 -62 -136 -62q-10 0 -20 2q-73 13 -99 155q-100 -102 -193 -178q-11 -9 -39 -12q-13 -1 -13 3z" />
<glyph unicode="y" horiz-adv-x="589" d="M5 43.5q0 7.5 2.5 19t4 19t5 20t4.5 18.5q33 155 81 308q5 15 38 23q27 6 25 -7q-33 -106 -58 -211q-1 -3 -3.5 -14.5t-5.5 -22.5t-6.5 -26.5t-6.5 -29.5t-6 -29t-4.5 -27t-2 -21.5t1 -14t5.5 -3.5q13 4 35.5 28t48 56.5t30.5 37.5q37 41 102 120q55 68 189 249l1 1l9 33 q4 14 35 21q23 4 21 -7q-1 -5 -3.5 -15.5t-4.5 -15.5q3 -1 0 -6q-1 -1 -2.5 -3t-1.5 -3q-122 -422 -160 -553q128 136 265 262q14 13 46 17q14 2 14 -3q0 -2 -4 -6l-108.5 -108.5t-135 -137.5t-103.5 -112q-12 -42 -36 -125t-36 -125q-56 -191 -87 -266q-1 -1 -13.5 -33 t-19 -44t-21.5 -31.5t-33 -27.5q-14 -7 -27 -7q-40 0 -70 62q-15 31 -15 71q0 43 17 96q33 102 105.5 205t176.5 220q36 121 155 518q-76 -101 -176 -214q-5 -6 -42 -50.5t-55 -63.5t-52 -45t-64 -34q-13 -4 -23 -4t-16 3.5t-9.5 8.5t-4.5 13.5t-1 16zM63 -617q1 -71 34 -97 q20 37 62 158q18 50 33.5 102t36.5 127t29 102l6 21l-1 -1q-1 -1 -1 -2q-139 -172 -182 -299q-17 -38 -17 -104v-7z" />
<glyph unicode="&#xfd;" horiz-adv-x="589" d="M5 43.5q0 7.5 2.5 19t4 19t5 20t4.5 18.5q33 155 81 308q5 15 38 23q27 6 25 -7q-33 -106 -58 -211q-1 -3 -3.5 -14.5t-5.5 -22.5t-6.5 -26.5t-6.5 -29.5t-6 -29t-4.5 -27t-2 -21.5t1 -14t5.5 -3.5q13 4 35.5 28t48 56.5t30.5 37.5q37 41 102 120q55 68 189 249l1 1l9 33 q4 14 35 21q23 4 21 -7q-1 -5 -3.5 -15.5t-4.5 -15.5q3 -1 0 -6q-1 -1 -2.5 -3t-1.5 -3q-122 -422 -160 -553q128 136 265 262q14 13 46 17q14 2 14 -3q0 -2 -4 -6l-108.5 -108.5t-135 -137.5t-103.5 -112q-12 -42 -36 -125t-36 -125q-56 -191 -87 -266q-1 -1 -13.5 -33 t-19 -44t-21.5 -31.5t-33 -27.5q-14 -7 -27 -7q-40 0 -70 62q-15 31 -15 71q0 43 17 96q33 102 105.5 205t176.5 220q36 121 155 518q-76 -101 -176 -214q-5 -6 -42 -50.5t-55 -63.5t-52 -45t-64 -34q-13 -4 -23 -4t-16 3.5t-9.5 8.5t-4.5 13.5t-1 16zM63 -617q1 -71 34 -97 q20 37 62 158q18 50 33.5 102t36.5 127t29 102l6 21l-1 -1q-1 -1 -1 -2q-139 -172 -182 -299q-17 -38 -17 -104v-7z" />
<glyph unicode="z" horiz-adv-x="612" d="M-54 2q-6 11 13 20q235 131 432 287q5 4 33.5 25t47.5 38t25 30q4 8 5 14t0 10.5t-3.5 8t-7.5 5.5t-9.5 3t-11.5 1.5t-11.5 1t-13 0.5h-11.5h-18q-121 0 -263 -37q-21 -6 -20 2q0 9 21 20q6 3 12 5q156 43 291 42h33q24 -1 31 -1.5t24 -2.5t20 -6.5t7 -12.5t-3.5 -21.5 t-21.5 -31.5q-21 -27 -58 -59t-61 -49.5t-77.5 -54t-62.5 -42.5q-125 -88 -250 -160h26l120 9q177 13 233 13h7q24 -1 -7 -19q-23 -13 -35 -14q-147 -8 -293 -18q-4 0 -29 -4t-46.5 -7t-42.5 -2.5t-25 7.5z" />
<glyph unicode="{" horiz-adv-x="1077" d="M109.5 295q-14.5 27 0.5 71q5 14 39 22q23 5 21 -4q-11 -69 40 -93q60 -27 135 37q26 49 63 70l1 2q1 2 2 3q69 96 116 282q3 13 22 88t25 97.5t23 85.5t29 97.5t30.5 85t37.5 94.5q43 96 114 123q21 8 40 8t32.5 -3.5t27.5 -16.5t22 -22.5t19 -29.5t14.5 -28t12.5 -29 q2 -5 -12 -13.5t-28 -11t-20 3.5q-33 74 -56 97q-35 35 -68 3q-8 -8 -15.5 -18.5t-13.5 -24l-10 -22.5t-9.5 -25t-7.5 -20q-33 -84 -59.5 -176t-55 -208t-45.5 -176q-38 -134 -106 -232h2q1 -1 2 -1q28 -5 38 -26.5t4 -50.5t-17 -58t-23 -56l-6 -12q-35 -78 -121 -213.5 t-101 -162.5q-69 -119 -66 -199q2 -47 20 -76q11 -18 33 -34.5t54.5 -16t55.5 35.5q10 14 43 21q18 4 17 -4q0 -1 -1 -2q-23 -43 -71 -65t-94 -20q-67 4 -98.5 54t-22.5 120q6 45 29 96.5t44.5 86t61 94t56.5 85.5q62 99 107 200q24 54 32 81q14 34 8 63q-15 5 -30 5 q-16 -16 -34 -31v-1q-3 -7 -20 -15q-36 -26 -67 -40q-37 -17 -77.5 -20.5t-72 7.5t-46 38z" />
<glyph unicode="}" horiz-adv-x="1009" d="M103 -462q0 8 15.5 17t28.5 10.5t16 -5.5q1 -32 24 -44.5t56 -4.5t65 32q45 34 77 95q44 82 44 202q0 30 -1.5 88.5t-1.5 93.5t3.5 86t11.5 96q6 36 11 55t16.5 50.5t31.5 52.5t49 35q2 1 6.5 3t7.5 3q-4 89 36 211q9 28 86.5 243.5t102.5 329.5q1 4 5 21.5t5.5 25 t3 21.5t1 24.5t-3.5 19.5q-21 73 -148 -45q-7 -6 -19 -17l-9 -9q-13 -13 -45 -16q-11 0 -11 3q-1 2 3 6q34 32 55.5 51t60.5 47.5t73.5 39.5t62.5 4q16 -4 26 -16t13 -24.5t2 -33t-3.5 -33.5t-6.5 -34q-9 -43 -22.5 -92t-24 -84t-31 -94.5t-29 -84t-34 -94.5t-31.5 -87 q-65 -181 -50 -282q23 -17 18 -59q13 -26 31 -41q36 -31 89.5 -12t77.5 74q6 14 38 22q24 5 22 -7q-10 -36 -41 -66.5t-69 -46t-77.5 -21.5t-67.5 7q-68 27 -84 104q-31 4 -40 -31q-10 -12 -15 -32t-7.5 -49t-3.5 -34q-16 -95 -14 -199q0 -21 3.5 -81.5t3.5 -92t-9.5 -81.5 t-29.5 -92q-31 -65 -87.5 -114t-124.5 -70q-34 -8 -66.5 -10t-54.5 15t-20 51z" />
<glyph unicode="~" horiz-adv-x="1095" d="M103 323q12 55 66 96t113 58.5t113 19.5q43 2 99.5 -14t106 -33.5t103 -29t108.5 1t104 54.5q15 13 54 18q25 3 22 -6q0 -3 -5 -8q-62 -65 -150 -92.5t-169 -18.5q-33 4 -65.5 13t-76 25t-60.5 21q-32 10 -68.5 15t-81 3t-78.5 -26.5t-45 -69.5q-5 -18 -51 -31 q-41 -10 -39 4z" />
<glyph unicode="&#xad;" />
<glyph unicode="&#x2000;" horiz-adv-x="919" />
<glyph unicode="&#x2001;" horiz-adv-x="1839" />
<glyph unicode="&#x2002;" horiz-adv-x="919" />
<glyph unicode="&#x2003;" horiz-adv-x="1839" />
<glyph unicode="&#x2004;" horiz-adv-x="613" />
<glyph unicode="&#x2005;" horiz-adv-x="459" />
<glyph unicode="&#x2006;" horiz-adv-x="306" />
<glyph unicode="&#x2007;" horiz-adv-x="306" />
<glyph unicode="&#x2008;" horiz-adv-x="229" />
<glyph unicode="&#x2009;" horiz-adv-x="367" />
<glyph unicode="&#x200a;" horiz-adv-x="102" />
<glyph unicode="&#x2010;" horiz-adv-x="999" d="M112 365q-21 -1 3.5 15.5t38.5 16.5q82 2 231.5 7t272 8.5t230.5 5.5q21 1 -4 -15q-22 -15 -35 -16q-84 -3 -737 -22z" />
<glyph unicode="&#x2011;" horiz-adv-x="999" d="M112 365q-21 -1 3.5 15.5t38.5 16.5q82 2 231.5 7t272 8.5t230.5 5.5q21 1 -4 -15q-22 -15 -35 -16q-84 -3 -737 -22z" />
<glyph unicode="&#x2012;" horiz-adv-x="999" d="M112 365q-21 -1 3.5 15.5t38.5 16.5q82 2 231.5 7t272 8.5t230.5 5.5q21 1 -4 -15q-22 -15 -35 -16q-84 -3 -737 -22z" />
<glyph unicode="&#x2013;" horiz-adv-x="1227" d="M114 365q-27 -1 5 15.5t50 16.5q105 2 297.5 7t350.5 8.5t297 5.5q27 1 -5 -15q-29 -15 -46 -16q-108 -3 -949 -22z" />
<glyph unicode="&#x2014;" horiz-adv-x="2250" d="M127 365q-54 -1 9 15.5t99 16.5q211 2 596 7t700.5 8.5t593.5 5.5q54 1 -10 -15q-57 -15 -90 -16q-216 -3 -1898 -22z" />
<glyph unicode="&#x202f;" horiz-adv-x="367" />
<glyph unicode="&#x205f;" horiz-adv-x="459" />
<glyph unicode="&#x20ac;" horiz-adv-x="1206" d="M112 216q-21 0 3 16q25 15 39 16q47 0 102 1t102 1q39 132 122 261q-57 0 -131.5 -0.5t-131.5 -0.5q-21 0 3.5 16.5t38.5 16.5q53 0 121 0.5t122 0.5q76 109 176 199q50 45 103.5 80.5t111 60t113 24t97.5 -30.5q9 -6 -19.5 -20t-38.5 -7q-33 24 -74.5 25t-83 -18 t-83.5 -48t-82 -68t-71.5 -75t-59.5 -72q-19 -26 -35 -50q163 0 244 -1q22 0 -5 -16q-23 -14 -35 -14q-152 -2 -226 -2q-81 -131 -115 -261q184 0 275 -1q21 0 -4 -16q-22 -13 -35 -14q-28 0 -77.5 -1t-90 -1.5t-76.5 -0.5q-51 -234 56 -314q53 -40 127 -45t153 27t140 95 q12 13 43 17q15 2 14 -4q0 -2 -3 -6q-76 -88 -190.5 -130t-217.5 -30q-72 9 -118.5 43t-65.5 87.5t-19 116.5t18 137q0 1 0.5 3t0.5 3h-237z" />
<glyph unicode="&#x25fc;" horiz-adv-x="532" d="M0 0v532h532v-532h-532z" />
</font>
</defs>
</svg>
